<svg width="1437" height="388" viewBox="0 0 1437 388" fill="none" xmlns="http://www.w3.org/2000/svg">
<path fill-rule="evenodd" clip-rule="evenodd" d="M1367.6 388H1368.64C1405.49 265.254 1428.94 135.118 1436.93 0L1435.93 0C1427.93 135.13 1404.47 265.266 1367.6 388ZM1132.8 388C1177.92 267.55 1206.98 136.979 1216.8 0L1215.8 0C1205.97 136.997 1176.89 267.569 1131.74 388H1132.8ZM977.428 0L976.425 0C963.264 140.973 923.659 272.618 863.55 388H864.673C924.723 272.581 964.281 140.938 977.428 0ZM776.843 0L775.836 0C757.195 149.415 698.994 283.754 614.103 388H615.392C700.149 283.657 758.232 149.328 776.843 0ZM245.036 388C417.274 353.912 554.385 198.823 590.383 0L589.369 0C553.028 200.389 413.811 356.11 239.681 388H245.036ZM107.319 388C69.6869 381.108 33.6851 368.432 0 350.772L0 351.907C32.0882 368.676 66.272 380.936 101.964 388H107.319ZM390.055 0H389C354.073 99.2448 270.667 169 173.5 169C104.635 169 42.6814 133.962 0 78.2199V79.8578C42.8158 135.222 104.689 170 173.5 170C271.295 170 355.078 99.7525 390.055 0Z" fill="#2B2B2B"/>
</svg>
