<svg width="54" height="56" viewBox="0 0 54 56" fill="none" xmlns="http://www.w3.org/2000/svg">
<path d="M27.2534 52.5922V48.0489C27.2528 47.3446 26.9591 46.6693 26.4367 46.1715C25.9144 45.6736 25.2062 45.394 24.4678 45.394H50.7298C51.4686 45.394 52.1771 45.6739 52.6995 46.1722C53.2219 46.6705 53.5154 47.3463 53.5154 48.051V52.5922C53.5154 53.2969 53.2219 53.9727 52.6995 54.471C52.1771 54.9693 51.4686 55.2492 50.7298 55.2492H24.4678C25.2066 55.2492 25.9151 54.9693 26.4375 54.471C26.9599 53.9727 27.2534 53.2969 27.2534 52.5922Z" fill="#CF4E16"/>
<path d="M24.4675 55.3445H50.7295C51.4956 55.3412 52.2292 55.0486 52.7699 54.5309C53.3106 54.0132 53.6144 53.3124 53.615 52.5817V48.0489C53.6138 47.3183 53.3098 46.6178 52.7692 46.1002C52.2287 45.5826 51.4955 45.2899 50.7295 45.286H24.4675C24.4381 45.286 24.4099 45.2972 24.3891 45.317C24.3682 45.3369 24.3566 45.3638 24.3566 45.3919C24.3566 45.4199 24.3682 45.4469 24.3891 45.4667C24.4099 45.4866 24.4381 45.4977 24.4675 45.4977C25.1765 45.4988 25.8561 45.768 26.3575 46.2462C26.8588 46.7244 27.141 47.3726 27.1421 48.0489V52.5922C27.1386 53.2668 26.8553 53.9127 26.3542 54.3887C25.8531 54.8647 25.1748 55.1322 24.4675 55.1328C24.4381 55.1328 24.4099 55.144 24.3891 55.1638C24.3682 55.1837 24.3566 55.2106 24.3566 55.2387C24.3566 55.2667 24.3682 55.2937 24.3891 55.3135C24.4099 55.3334 24.4381 55.3445 24.4675 55.3445ZM50.7295 45.4977C51.4366 45.5016 52.1134 45.772 52.6123 46.2499C53.1112 46.7278 53.3919 47.3744 53.393 48.0489V52.5922C53.3925 53.2668 53.112 53.9138 52.6129 54.3918C52.1139 54.8698 51.4368 55.14 50.7295 55.1434H25.5795C26.1057 54.9318 26.5549 54.577 26.8707 54.1232C27.1865 53.6694 27.3551 53.1369 27.3552 52.5922V48.0489C27.3551 47.5042 27.1865 46.9717 26.8707 46.5179C26.5549 46.0641 26.1057 45.7093 25.5795 45.4977H50.7295Z" fill="#263238"/>
<path d="M1.08265 45.7518L0.767473 45.557C0.751276 45.546 0.739084 45.5305 0.732588 45.5125C0.726093 45.4946 0.72562 45.4752 0.731241 45.457C0.736862 45.4389 0.748297 45.4228 0.763945 45.4111C0.779591 45.3994 0.798672 45.3927 0.818525 45.3918H24.4681C25.2069 45.3918 25.9154 45.6718 26.4378 46.1701C26.9602 46.6683 27.2537 47.3442 27.2537 48.0489V52.5922C27.2537 53.2969 26.9602 53.9727 26.4378 54.471C25.9154 54.9693 25.2069 55.2492 24.4681 55.2492H0.818525C0.79854 55.2491 0.779121 55.2429 0.763124 55.2315C0.747128 55.22 0.735403 55.204 0.729683 55.1858C0.723963 55.1675 0.724545 55.1479 0.73135 55.13C0.738153 55.1121 0.750818 55.0967 0.767473 55.0862L1.08265 54.8893V45.7518Z" fill="#949494"/>
<path d="M0.818634 55.3445H24.4682C25.2341 55.3434 25.9685 55.0534 26.5112 54.5378C27.0538 54.0222 27.3606 53.3228 27.3647 52.5922V48.0489C27.3636 47.3165 27.058 46.6144 26.5151 46.0965C25.9721 45.5786 25.236 45.2871 24.4682 45.286H0.818634C0.774719 45.2862 0.732027 45.2998 0.696892 45.325C0.661758 45.3501 0.636055 45.3854 0.623594 45.4255C0.611135 45.4657 0.612585 45.5086 0.627728 45.5479C0.64287 45.5873 0.670898 45.6209 0.707655 45.6438L0.978443 45.8174V54.8322L0.714314 54.9973C0.679117 55.02 0.65213 55.0525 0.637033 55.0904C0.621939 55.1283 0.619471 55.1697 0.629969 55.209C0.642536 55.2476 0.667517 55.2815 0.701376 55.3058C0.735235 55.3301 0.776258 55.3437 0.818634 55.3445ZM24.4682 45.4977C25.1772 45.4988 25.8568 45.768 26.3581 46.2462C26.8594 46.7244 27.1416 47.3726 27.1428 48.0489V52.5922C27.1393 53.2668 26.856 53.9127 26.3549 54.3887C25.8537 54.8647 25.1754 55.1322 24.4682 55.1328H0.878561L1.14269 54.9677C1.15832 54.9581 1.17118 54.9449 1.1801 54.9294C1.18902 54.9139 1.19371 54.8965 1.19374 54.8787V45.7518C1.19333 45.7341 1.18847 45.7169 1.17959 45.7014C1.1707 45.6859 1.15805 45.6727 1.14269 45.6629L0.878561 45.4977H24.4682Z" fill="#263238"/>
<path d="M23.7066 45.7518H1.08249V54.8808H23.7066C24.5101 54.8808 25.2808 54.5764 25.8489 54.0344C26.4171 53.4925 26.7363 52.7574 26.7363 51.991V48.6417C26.7363 47.8752 26.4171 47.1402 25.8489 46.5982C25.2808 46.0562 24.5101 45.7518 23.7066 45.7518Z" fill="white"/>
<path d="M1.08235 54.9867H23.7065C24.5393 54.9862 25.3378 54.6704 25.9266 54.1087C26.5155 53.547 26.8466 52.7853 26.8472 51.991V48.6417C26.8466 47.8473 26.5155 47.0857 25.9266 46.524C25.3378 45.9623 24.5393 45.6465 23.7065 45.6459H1.08235C1.05292 45.6459 1.02469 45.6571 1.00388 45.6769C0.983068 45.6968 0.971375 45.7237 0.971375 45.7518V54.8809C0.971375 54.9089 0.983068 54.9359 1.00388 54.9557C1.02469 54.9756 1.05292 54.9867 1.08235 54.9867ZM23.7065 45.8576C24.4802 45.8588 25.2219 46.1524 25.769 46.6743C26.3161 47.1962 26.624 47.9036 26.6252 48.6417V51.991C26.624 52.729 26.3161 53.4365 25.769 53.9583C25.2219 54.4802 24.4802 54.7739 23.7065 54.775H1.19999V45.8576H23.7065Z" fill="#263238"/>
<path d="M16.7057 47.5387H25.9347C25.9641 47.5387 25.9923 47.5275 26.0131 47.5077C26.034 47.4878 26.0457 47.4609 26.0457 47.4328C26.0457 47.4047 26.034 47.3778 26.0131 47.358C25.9923 47.3381 25.9641 47.327 25.9347 47.327H16.7057C16.6762 47.327 16.648 47.3381 16.6272 47.358C16.6064 47.3778 16.5947 47.4047 16.5947 47.4328C16.5947 47.4609 16.6064 47.4878 16.6272 47.5077C16.648 47.5275 16.6762 47.5387 16.7057 47.5387Z" fill="#263238"/>
<path d="M10.5217 48.3749H19.1293C19.1587 48.3749 19.1869 48.3637 19.2077 48.3439C19.2285 48.324 19.2402 48.2971 19.2402 48.269C19.2402 48.2409 19.2285 48.214 19.2077 48.1942C19.1869 48.1743 19.1587 48.1631 19.1293 48.1631H10.5217C10.4923 48.1631 10.4641 48.1743 10.4433 48.1942C10.4225 48.214 10.4108 48.2409 10.4108 48.269C10.4113 48.2969 10.4232 48.3235 10.4439 48.3433C10.4646 48.363 10.4925 48.3743 10.5217 48.3749Z" fill="#263238"/>
<path d="M13.9223 49.4165H22.1703C22.1997 49.4165 22.2279 49.4054 22.2487 49.3855C22.2696 49.3657 22.2812 49.3388 22.2812 49.3107C22.2812 49.2826 22.2696 49.2557 22.2487 49.2358C22.2279 49.216 22.1997 49.2048 22.1703 49.2048H13.9223C13.8931 49.2054 13.8652 49.2167 13.8445 49.2364C13.8238 49.2562 13.8119 49.2828 13.8114 49.3107C13.8114 49.3388 13.823 49.3657 13.8439 49.3855C13.8647 49.4054 13.8929 49.4165 13.9223 49.4165Z" fill="#263238"/>
<path d="M20.3151 52.5541H25.7286C25.7579 52.5536 25.7858 52.5422 25.8065 52.5225C25.8272 52.5028 25.839 52.4762 25.8396 52.4483C25.8396 52.4202 25.8279 52.3933 25.8071 52.3734C25.7863 52.3536 25.7581 52.3424 25.7286 52.3424H20.3151C20.2856 52.3424 20.2574 52.3536 20.2366 52.3734C20.2158 52.3933 20.2041 52.4202 20.2041 52.4483C20.2041 52.4763 20.2158 52.5033 20.2366 52.5231C20.2574 52.543 20.2856 52.5541 20.3151 52.5541Z" fill="#263238"/>
<path d="M13.6141 53.2909H21.7066C21.7361 53.2909 21.7643 53.2797 21.7851 53.2599C21.8059 53.24 21.8176 53.2131 21.8176 53.185C21.8176 53.1569 21.8059 53.13 21.7851 53.1102C21.7643 53.0903 21.7361 53.0792 21.7066 53.0792H13.6141C13.5846 53.0792 13.5564 53.0903 13.5356 53.1102C13.5148 53.13 13.5031 53.1569 13.5031 53.185C13.5031 53.2131 13.5148 53.24 13.5356 53.2599C13.5564 53.2797 13.5846 53.2909 13.6141 53.2909Z" fill="#263238"/>
<path d="M20.51 53.979H22.6852C22.7146 53.979 22.7428 53.9678 22.7636 53.948C22.7845 53.9281 22.7961 53.9012 22.7961 53.8731C22.7961 53.8451 22.7845 53.8181 22.7636 53.7983C22.7428 53.7784 22.7146 53.7673 22.6852 53.7673H20.51C20.4805 53.7673 20.4523 53.7784 20.4315 53.7983C20.4107 53.8181 20.399 53.8451 20.399 53.8731C20.399 53.9012 20.4107 53.9281 20.4315 53.948C20.4523 53.9678 20.4805 53.979 20.51 53.979Z" fill="#263238"/>
<path d="M2.84006 51.866H16.6014C16.6309 51.866 16.6591 51.8549 16.6799 51.835C16.7007 51.8152 16.7124 51.7882 16.7124 51.7602C16.7124 51.7321 16.7007 51.7052 16.6799 51.6853C16.6591 51.6655 16.6309 51.6543 16.6014 51.6543H2.84006C2.81063 51.6543 2.78239 51.6655 2.76158 51.6853C2.74077 51.7052 2.72908 51.7321 2.72908 51.7602C2.72908 51.7882 2.74077 51.8152 2.76158 51.835C2.78239 51.8549 2.81063 51.866 2.84006 51.866Z" fill="#263238"/>
<path d="M1.24179 49.751H4.08507C4.1145 49.751 4.14273 49.7399 4.16354 49.72C4.18435 49.7002 4.19604 49.6732 4.19604 49.6452C4.19604 49.6171 4.18435 49.5902 4.16354 49.5703C4.14273 49.5505 4.1145 49.5393 4.08507 49.5393H1.25067C1.22124 49.5393 1.19301 49.5505 1.17219 49.5703C1.15138 49.5902 1.13969 49.6171 1.13969 49.6452C1.13969 49.6732 1.15138 49.7002 1.17219 49.72C1.19301 49.7399 1.22124 49.751 1.25067 49.751H1.24179Z" fill="#263238"/>
<path d="M1.70621 49.063H4.59166C4.62091 49.0624 4.64881 49.0511 4.6695 49.0314C4.69019 49.0116 4.70207 48.985 4.70264 48.9571C4.70264 48.929 4.69094 48.9021 4.67013 48.8823C4.64932 48.8624 4.62109 48.8513 4.59166 48.8513H1.70621C1.67678 48.8513 1.64855 48.8624 1.62774 48.8823C1.60693 48.9021 1.59523 48.929 1.59523 48.9571C1.59523 48.9852 1.60693 49.0121 1.62774 49.032C1.64855 49.0518 1.67678 49.063 1.70621 49.063Z" fill="#263238"/>
<path d="M1.70637 53.4878H8.92442C8.95386 53.4878 8.98209 53.4766 9.0029 53.4568C9.02371 53.4369 9.0354 53.41 9.0354 53.3819C9.0354 53.3538 9.02371 53.3269 9.0029 53.3071C8.98209 53.2872 8.95386 53.2761 8.92442 53.2761H1.70637C1.67693 53.2761 1.64871 53.2872 1.6279 53.3071C1.60708 53.3269 1.59539 53.3538 1.59539 53.3819C1.59539 53.41 1.60708 53.4369 1.6279 53.4568C1.64871 53.4766 1.67693 53.4878 1.70637 53.4878Z" fill="#263238"/>
<path d="M24.7276 4.4571C24.7811 4.77889 24.8781 5.09272 25.0161 5.39076C25.2381 5.89252 25.3468 6.55518 25.1804 6.77325C25.0139 6.99131 24.9118 7.15433 25.0516 7.30676C25.233 7.44047 25.4383 7.54162 25.6576 7.60528C25.6576 7.60528 26.0704 8.49024 26.5077 8.6342C26.9449 8.77817 27.7995 8.58128 27.7995 8.58128C27.7995 8.58128 28.1879 8.9793 28.1701 9.23336C28.1524 9.48741 27.3644 10.3787 27.3644 10.3787C27.3644 10.3787 29.6106 10.3618 31.4307 9.25876C33.2507 8.15573 33.5415 7.06118 33.5415 7.06118C33.5415 7.06118 32.0344 7.21572 31.3397 6.88122C31.1497 6.80547 30.9855 6.6808 30.8656 6.52115C30.7457 6.36149 30.6746 6.17316 30.6605 5.9772C30.6605 5.9772 31.1888 3.33079 29.6439 2.39501C28.0991 1.45924 26.2791 2.13672 25.3246 2.89889C24.3702 3.66106 24.7276 4.4571 24.7276 4.4571Z" fill="white"/>
<path d="M27.3731 10.4846C27.4663 10.4846 29.6726 10.455 31.4993 9.34771C33.326 8.24045 33.6456 7.13319 33.6589 7.08662C33.6634 7.07003 33.6635 7.05267 33.6593 7.03602C33.6552 7.01938 33.6468 7.00394 33.6351 6.99104C33.6233 6.97813 33.6084 6.96814 33.5917 6.96193C33.575 6.95571 33.5569 6.95346 33.5391 6.95535C33.5235 6.95535 32.0542 7.10143 31.3994 6.7881C31.2278 6.72121 31.079 6.61018 30.9697 6.46739C30.8604 6.32459 30.7947 6.15564 30.7801 5.97936C30.8001 5.8862 31.3018 3.26731 29.7103 2.30613C27.999 1.27297 26.1079 2.14099 25.2601 2.81848C24.3123 3.57429 24.5787 4.36398 24.6275 4.48466C24.6835 4.81145 24.7827 5.13015 24.9227 5.43314C25.1668 5.96242 25.2201 6.55522 25.1003 6.70342C24.9804 6.85161 24.7673 7.13743 24.976 7.36819C25.1542 7.51101 25.3612 7.61763 25.5841 7.68153C25.6818 7.88054 26.0525 8.58555 26.472 8.72739C26.8915 8.86924 27.5462 8.7274 27.7593 8.68929C27.9107 8.83436 28.0148 9.01822 28.059 9.21857C28.0479 9.35618 27.655 9.877 27.2799 10.3025C27.2656 10.3175 27.2565 10.3363 27.2538 10.3563C27.251 10.3764 27.2547 10.3968 27.2643 10.4147C27.272 10.4361 27.2868 10.4545 27.3064 10.4671C27.3261 10.4797 27.3495 10.4858 27.3731 10.4846ZM33.3837 7.18189C33.235 7.50792 32.7489 8.33785 31.3861 9.16776C29.9633 10.0316 28.2521 10.2263 27.6128 10.2623C27.8592 9.97015 28.2787 9.45569 28.2787 9.24186C28.3009 8.94757 27.9236 8.55167 27.8792 8.50933C27.8662 8.49516 27.8494 8.48469 27.8306 8.47908C27.8118 8.47347 27.7917 8.47295 27.7726 8.47757C27.7726 8.47757 26.9469 8.66811 26.543 8.53473C26.2211 8.42888 25.8771 7.79797 25.7595 7.56297C25.753 7.54926 25.7435 7.53704 25.7317 7.52717C25.7198 7.5173 25.7058 7.51001 25.6907 7.50581C25.4895 7.44882 25.3008 7.35775 25.1336 7.23693C25.0625 7.15648 25.0914 7.06968 25.2712 6.8368C25.4754 6.5658 25.3511 5.85445 25.118 5.3548C24.9852 5.06576 24.8905 4.7621 24.8361 4.45079C24.8384 4.44174 24.8384 4.43231 24.8361 4.42326C24.8228 4.39362 24.5254 3.6865 25.4021 2.98573C26.4409 2.15793 28.1943 1.6477 29.5905 2.49244C31.0532 3.37528 30.5626 5.93913 30.5582 5.96453C30.5669 6.1838 30.6411 6.39614 30.772 6.57654C30.903 6.75695 31.0852 6.89793 31.2973 6.98288C31.8766 7.25387 32.9598 7.21153 33.3837 7.18189Z" fill="#263238"/>
<path d="M28.4384 6.16779C28.6176 6.33704 28.8322 6.46842 29.0681 6.55341C29.3041 6.63839 29.5561 6.67508 29.8079 6.66108C30.709 6.63779 31.0153 6.54464 31.3017 5.93491L31.5858 5.32729C31.5858 5.32729 31.8077 5.85657 32.2516 5.57288C32.5122 5.40715 32.7331 5.1907 32.8997 4.93774C32.8997 4.93774 32.4714 6.25036 33.2061 6.41973C33.9407 6.5891 36.329 5.92009 36.2335 4.39998C36.1381 2.87988 33.9385 0.273694 32.2583 0.328739C31.2655 0.359225 30.3236 0.755309 29.6303 1.43388C29.6303 1.43388 28.8113 0.777571 27.9434 0.775454C27.6966 0.768713 27.451 0.810539 27.2219 0.898322C26.9928 0.986106 26.785 1.11797 26.6117 1.28568C26.6117 1.28568 25.7705 0.512931 25.1024 1.03798C24.7069 1.3444 24.4074 1.7487 24.2367 2.20663C24.2367 2.20663 22.8895 2.20664 22.9405 3.117C22.9666 3.537 23.1334 3.93792 23.4163 4.26073C23.6992 4.58355 24.0833 4.81121 24.512 4.91021C24.9428 4.99961 25.393 4.93955 25.7816 4.74084C25.7816 4.74084 26.5784 5.28071 27.0867 5.31459C27.595 5.34846 27.7126 4.92927 27.8791 4.71332C28.0455 4.49737 28.7869 5.53477 28.4384 6.16779Z" fill="#263238"/>
<path d="M29.748 6.769H29.8123C30.7534 6.74359 31.0975 6.6335 31.4015 5.98143L31.6013 5.558C31.6717 5.64659 31.7683 5.71298 31.8787 5.74854C31.9544 5.7684 32.0338 5.77127 32.1109 5.75695C32.1879 5.74262 32.2604 5.71149 32.3227 5.66597C32.4579 5.57801 32.5836 5.47729 32.6978 5.36534C32.6361 5.65897 32.671 5.96359 32.7976 6.2376C32.8382 6.30838 32.8943 6.36999 32.9621 6.41822C33.0299 6.46644 33.1078 6.50016 33.1905 6.51706C33.6833 6.62715 34.8907 6.39003 35.6653 5.7676C35.8877 5.60706 36.0664 5.39782 36.1861 5.15756C36.3059 4.91731 36.3633 4.65309 36.3534 4.38722C36.2602 2.90523 34.0584 0.152959 32.2627 0.216473C31.277 0.244073 30.3375 0.621552 29.6281 1.27504C29.3928 1.10567 28.6981 0.654719 27.9523 0.652602C27.4621 0.6431 26.9863 0.811029 26.6206 1.12261C26.2699 0.841027 25.5885 0.512872 25.0447 0.940533C24.6556 1.24498 24.3545 1.63925 24.1702 2.0859C23.9482 2.09649 23.3955 2.15577 23.0737 2.47757C22.9918 2.56249 22.9297 2.66299 22.8914 2.77246C22.8531 2.88194 22.8396 2.9979 22.8517 3.11271C22.8798 3.55618 23.0566 3.97931 23.3559 4.3197C23.6552 4.6601 24.0613 4.89974 24.5142 5.00331C24.9473 5.08862 25.3978 5.03658 25.7971 4.85511C25.9947 4.98214 26.645 5.38016 27.1 5.4098C27.555 5.43944 27.7659 5.13246 27.899 4.90804L27.9745 4.78525C28.1006 4.88845 28.1976 5.02021 28.2564 5.16845C28.3252 5.30394 28.5361 5.77183 28.3407 6.12751C28.3302 6.14626 28.3259 6.1676 28.3282 6.18875C28.3306 6.20989 28.3396 6.22987 28.3541 6.24607C28.537 6.41898 28.7549 6.55452 28.9946 6.64443C29.2342 6.73434 29.4906 6.77672 29.748 6.769ZM31.5858 5.22138C31.5644 5.22144 31.5436 5.2275 31.5258 5.2388C31.508 5.25009 31.4942 5.26612 31.4859 5.28489L31.1996 5.89251C30.9376 6.45143 30.6824 6.52765 29.8057 6.55517C29.3537 6.57801 28.9105 6.4305 28.5716 6.14445C28.8135 5.57494 28.3652 4.77466 28.0855 4.60952C28.0651 4.59311 28.0413 4.58083 28.0158 4.57341C27.9902 4.56599 27.9633 4.56359 27.9368 4.56636C27.9102 4.56913 27.8845 4.57701 27.8613 4.58952C27.838 4.60204 27.8176 4.61893 27.8014 4.63916C27.7659 4.68574 27.7304 4.7429 27.6948 4.80007C27.5639 5.01178 27.4418 5.22349 27.1044 5.2002C26.6361 5.16633 25.8637 4.64975 25.857 4.6434C25.8387 4.63157 25.817 4.62524 25.7949 4.62524C25.7727 4.62524 25.7511 4.63157 25.7327 4.6434C25.367 4.82512 24.9464 4.87976 24.5431 4.79795C24.1386 4.70423 23.7764 4.48904 23.5098 4.1841C23.2433 3.87916 23.0865 3.50061 23.0626 3.10424C23.0537 3.01862 23.0641 2.93216 23.0932 2.85071C23.1223 2.76926 23.1694 2.69472 23.2313 2.63212C23.5576 2.3082 24.2345 2.30397 24.2456 2.30397C24.2696 2.30397 24.293 2.29654 24.3122 2.28279C24.3314 2.26905 24.3454 2.24974 24.3522 2.22775C24.5176 1.79088 24.8046 1.4052 25.1823 1.11202C25.766 0.652602 26.514 1.32373 26.5429 1.35337C26.5645 1.37367 26.5936 1.38505 26.6239 1.38505C26.6542 1.38505 26.6833 1.37367 26.7049 1.35337C26.867 1.19983 27.0597 1.07891 27.2717 0.997809C27.4837 0.916706 27.7106 0.877069 27.939 0.881253C28.7558 0.881253 29.546 1.51639 29.5548 1.51639C29.5773 1.53419 29.6062 1.54283 29.6353 1.54046C29.6643 1.53808 29.6913 1.52487 29.7102 1.50369C30.3874 0.854454 31.2987 0.475894 32.2583 0.445124C33.812 0.390079 36.0316 2.89888 36.1181 4.41686C36.1272 4.65001 36.0766 4.88176 35.9706 5.09203C35.8646 5.3023 35.7065 5.48477 35.51 5.62363C34.7975 6.19526 33.6655 6.42602 33.2282 6.32864C33.175 6.31771 33.1248 6.29599 33.0812 6.26494C33.0375 6.23389 33.0014 6.19424 32.9752 6.14868C32.7533 5.76971 32.9974 4.99273 32.9996 4.98426C33.0066 4.95964 33.004 4.93346 32.9924 4.91052C32.9807 4.88757 32.9608 4.86941 32.9362 4.85937C32.9116 4.84932 32.8841 4.84807 32.8586 4.85585C32.8332 4.86362 32.8115 4.8799 32.7976 4.90169C32.6407 5.14262 32.4319 5.34901 32.185 5.50719C32.1505 5.5342 32.11 5.55337 32.0665 5.56327C32.0231 5.57318 31.9779 5.57354 31.9342 5.56435C31.8186 5.51229 31.7276 5.42093 31.679 5.30818C31.6713 5.28885 31.6576 5.27221 31.6398 5.26048C31.6219 5.24875 31.6008 5.2425 31.5791 5.24255L31.5858 5.22138Z" fill="#263238"/>
<path d="M27.4152 5.84171C27.4152 5.84171 27.9124 4.419 28.2254 4.63918C28.5384 4.85936 28.8358 6.45145 28.0301 6.42604" fill="white"/>
<path d="M28.057 6.5319C28.1805 6.53229 28.3006 6.49334 28.3983 6.42125C28.496 6.34915 28.5657 6.24802 28.5964 6.13388C28.7806 5.63 28.5742 4.74928 28.2989 4.5545C28.2693 4.5337 28.2351 4.51981 28.1988 4.51392C28.1626 4.50804 28.1254 4.51034 28.0903 4.52063C27.7551 4.62225 27.4133 5.5305 27.3179 5.80784C27.3127 5.8212 27.3104 5.83541 27.3112 5.84963C27.3119 5.86385 27.3156 5.87778 27.3222 5.89059C27.3287 5.9034 27.3378 5.91482 27.3491 5.92418C27.3603 5.93354 27.3734 5.94064 27.3876 5.94506C27.4018 5.94948 27.4168 5.95111 27.4316 5.94988C27.4465 5.94865 27.4609 5.94457 27.4741 5.93789C27.4873 5.93121 27.4989 5.92206 27.5083 5.91099C27.5177 5.89992 27.5246 5.88716 27.5287 5.87348C27.7507 5.22352 28.0526 4.72175 28.1591 4.72175C28.3322 4.84455 28.5497 5.6173 28.3811 6.06402C28.3644 6.13884 28.3204 6.20561 28.257 6.2525C28.1937 6.29939 28.1149 6.32337 28.0348 6.32019C28.0201 6.31902 28.0053 6.32077 27.9913 6.32535C27.9773 6.32993 27.9645 6.33723 27.9537 6.34679C27.9428 6.35634 27.9342 6.36795 27.9283 6.38086C27.9224 6.39378 27.9193 6.40772 27.9194 6.42181C27.9188 6.43572 27.9211 6.44959 27.9261 6.46265C27.9311 6.47572 27.9388 6.4877 27.9487 6.49793C27.9586 6.50815 27.9705 6.51642 27.9838 6.52225C27.997 6.52808 28.0113 6.53136 28.0259 6.5319H28.057Z" fill="#263238"/>
<path d="M24.4657 6.17202C24.4759 6.17396 24.4865 6.17396 24.4967 6.17202L27.7728 5.22566C27.8023 5.21752 27.8271 5.19855 27.8419 5.17295C27.8567 5.14734 27.8602 5.11718 27.8516 5.0891C27.8431 5.06103 27.8232 5.03734 27.7964 5.02324C27.7695 5.00915 27.7379 5.0058 27.7085 5.01394L24.4324 5.9603C24.4044 5.96906 24.381 5.9879 24.3674 6.0128C24.3537 6.03771 24.3507 6.06673 24.3591 6.09368C24.3654 6.11606 24.3793 6.13585 24.3985 6.15C24.4178 6.16415 24.4414 6.17189 24.4657 6.17202Z" fill="#263238"/>
<path d="M25.1712 6.67158C25.2427 6.67228 25.3139 6.66228 25.3821 6.64194C25.4099 6.63364 25.4332 6.61521 25.4469 6.59064C25.4607 6.56608 25.4637 6.53735 25.4553 6.51068C25.4462 6.48396 25.4264 6.46171 25.4003 6.44866C25.3742 6.43562 25.3438 6.4328 25.3155 6.44081C25.1809 6.46873 25.0404 6.45457 24.9149 6.40043C24.7894 6.34628 24.6855 6.25503 24.6186 6.14018C24.5265 6.00419 24.4894 5.8409 24.5142 5.68076C24.5227 5.61189 24.547 5.54564 24.5854 5.48672C24.6237 5.42781 24.6752 5.37768 24.7362 5.3399C24.7963 5.30301 24.8648 5.2805 24.936 5.27427C24.9506 5.27295 24.9647 5.26888 24.9777 5.2623C24.9906 5.25572 25.0021 5.24675 25.0114 5.23592C25.0207 5.2251 25.0276 5.21262 25.0318 5.19921C25.036 5.18581 25.0374 5.17174 25.0358 5.15783C25.032 5.13014 25.0172 5.10489 24.9945 5.0872C24.9719 5.06951 24.943 5.0607 24.9138 5.06256C24.8087 5.07224 24.7075 5.10562 24.6186 5.15995C24.5298 5.21325 24.4544 5.28448 24.3976 5.36862C24.3409 5.45275 24.3041 5.54774 24.2901 5.64689C24.2587 5.85764 24.3067 6.07219 24.4255 6.25239C24.5019 6.37716 24.6106 6.48118 24.7412 6.55456C24.8717 6.62793 25.0198 6.66822 25.1712 6.67158Z" fill="#263238"/>
<path d="M27.4176 10.1818C27.4176 10.1818 29.7437 9.51281 31.2663 8.38862C32.7889 7.26442 33.5769 6.72032 34.4203 6.66316C35.2638 6.60599 36.4179 6.88546 36.8618 7.23055C37.2787 7.60344 37.6584 8.01238 37.996 8.45214C37.996 8.45214 41.5474 11.0075 42.2443 11.685C42.9413 12.3625 45.6736 16.6306 46.0353 17.3144C46.3971 17.9983 47.4559 19.095 47.4559 19.095C47.4559 19.095 50.2281 19.6581 50.3968 19.8127C50.5655 19.9672 51.0205 21.4534 51.0405 21.5974C51.0605 21.7414 50.015 21.699 49.782 21.6249C49.5489 21.5508 49.378 21.0279 49.378 21.0279C49.378 21.0279 47.7156 20.8162 47.2539 20.6045C46.8705 20.3757 46.528 20.0898 46.2395 19.7576C46.1574 19.6666 41.0835 15.4916 40.7594 15.011C40.4354 14.5304 40.1069 14.1387 40.1069 14.1387L37.8229 13.1225L38.2446 14.2658C38.2446 14.2658 39.8538 15.5361 40.4309 16.2432C41.008 16.9503 41.2788 17.3017 41.2788 17.3017C41.2788 17.3017 43.4984 18.9383 43.8735 20.6214C44.2486 22.3045 44.5394 30.0405 44.8168 31.1457C45.0942 32.2508 46.1774 34.1732 46.7012 35.2423C47.225 36.3115 47.245 37.965 47.427 39.5189C47.609 41.0729 47.8709 43.2049 47.8909 43.2917C48.1012 43.8523 48.2682 44.4269 48.3903 45.0108C48.4658 45.5888 47.9175 45.7221 47.6179 45.7285C47.2435 45.7373 46.8712 45.6732 46.5237 45.5401C46.264 45.4088 45.6114 45.3283 45.3162 45.286C45.158 45.2682 45.0081 45.209 44.8831 45.1148C44.7581 45.0206 44.6629 44.8952 44.6082 44.7525C44.455 44.3989 44.7391 44.1893 44.8523 43.8823C44.9655 43.5754 45.4427 42.8111 45.4716 42.4131C45.5004 42.015 44.6747 39.502 43.3874 37.8993C42.1 36.2967 41.3343 33.7603 41.0102 32.9114C40.6862 32.0624 38.2668 25.8338 38.2668 25.8338C38.2668 25.8338 35.0906 31.821 34.5246 32.5811C33.9586 33.3411 33.8588 33.4491 33.5125 35.2825C33.1663 37.116 31.8678 39.2247 31.0577 40.4251C30.2475 41.6255 30.081 43.4695 30.081 43.4695C30.081 43.4695 30.4206 44.5281 30.1232 44.9007C29.8258 45.2733 28.0013 45.2415 27.7017 45.25C27.402 45.2585 26.6318 45.5189 25.9482 45.4723C25.2646 45.4257 24.6342 45.0108 24.6853 44.7292C24.7363 44.4476 25.1292 44.5577 25.3511 44.401C25.5731 44.2444 27.0935 43.1308 27.0935 43.1308L28.1789 41.8351C28.1789 41.8351 28.574 39.7772 28.6672 38.9558C28.7604 38.1343 29.2243 33.9382 29.3996 32.8161C29.575 31.694 30.1587 27.9213 30.6359 25.9545C31.1131 23.9876 31.6614 21.8832 31.6614 21.8832C31.6614 21.8832 31.3373 19.3532 31.3085 18.9298C31.2796 18.5064 31.2641 17.9284 31.2641 17.9284L28.7848 15.8727C28.7848 15.8727 23.3247 18.011 22.0728 17.9242C20.821 17.8374 18.4904 15.824 17.6137 14.7358C16.737 13.6476 15.0146 11.8713 15.0146 11.8713L14.0624 11.0075C14.0624 11.0075 14.089 10.2665 14.2266 10.0188C14.3642 9.77111 14.4353 9.63349 14.4353 9.63349C14.4353 9.63349 14.2644 9.13596 14.6572 9.04916C14.9402 8.968 15.2421 8.968 15.5251 9.04916C15.6405 9.11479 15.9579 9.27993 15.9579 9.27993C15.9579 9.27993 15.8225 9.47048 16.1621 9.72241C16.3433 9.86301 16.5482 9.97325 16.768 10.0484C16.768 10.0484 16.8568 10.0484 16.8657 10.3406C16.8746 10.6328 16.9789 11.6109 16.9789 11.6109C16.9789 11.6109 18.446 12.7965 18.9654 13.0611C19.4848 13.3258 21.185 14.071 21.185 14.071L23.995 13.3491C23.995 13.3491 25.6841 10.5481 27.4176 10.1818Z" fill="white"/>
<path d="M47.5624 45.8365H47.6134C47.8859 45.8375 48.1477 45.7355 48.3414 45.5528C48.4075 45.4768 48.4554 45.388 48.4819 45.2926C48.5083 45.1972 48.5127 45.0974 48.4946 45.0002C48.3892 44.4602 48.2408 43.9287 48.0507 43.4102C48.024 43.3361 48.0041 43.2853 48.0018 43.2684C47.9774 43.1625 47.7333 41.1513 47.5402 39.5105C47.498 39.1484 47.4625 38.7801 47.4292 38.4159C47.316 37.1901 47.2072 36.032 46.8055 35.2C46.6812 34.9481 46.528 34.6474 46.3616 34.3214C45.82 33.2628 45.1453 31.9544 44.9366 31.1224C44.8123 30.6185 44.6814 28.6581 44.5415 26.5833C44.3751 24.0893 44.2019 21.5021 43.9955 20.6003C43.6204 18.9468 41.574 17.378 41.3742 17.2298C41.3209 17.1599 41.0435 16.8063 40.5308 16.1712C39.987 15.5128 38.562 14.3632 38.3534 14.1959L38.0271 13.3194L40.0425 14.2213C40.1113 14.306 40.3954 14.6575 40.6728 15.0682C40.8948 15.3985 43.0544 17.2234 45.3539 19.1479C45.7978 19.5099 46.133 19.7979 46.164 19.8296C46.4591 20.171 46.8126 20.4623 47.2095 20.6913C47.6334 20.903 48.9851 21.0851 49.3003 21.1253C49.3602 21.2904 49.5223 21.6546 49.7442 21.7287C49.9395 21.7901 50.9028 21.8642 51.0937 21.7139C51.1132 21.6987 51.1284 21.6791 51.1381 21.657C51.1478 21.6348 51.1516 21.6107 51.1492 21.5868C51.1314 21.4577 50.672 19.9207 50.4722 19.7386C50.2725 19.5565 48.3747 19.1775 47.5135 19.0018C47.356 18.8346 46.457 17.8734 46.1307 17.2679C45.749 16.5586 43.0233 12.2926 42.3153 11.613C41.6073 10.9334 38.3356 8.5707 38.067 8.37804C37.7274 7.9347 37.3438 7.5235 36.9217 7.1501C36.4334 6.77961 35.257 6.50226 34.4025 6.55943C33.5147 6.62082 32.689 7.19456 31.1886 8.30817C29.7281 9.38579 27.4863 10.0506 27.3798 10.0823C25.7107 10.438 24.1414 12.9045 23.9239 13.258L21.1983 13.9567C20.9475 13.8466 19.4803 13.2051 19.012 12.9659C18.5437 12.7266 17.3007 11.7358 17.0787 11.5559C17.0588 11.3653 16.9766 10.5883 16.97 10.3427C16.97 10.0358 16.8568 9.96377 16.7858 9.94895C16.5827 9.87572 16.3931 9.77209 16.2242 9.64197C15.9778 9.4599 16.0422 9.34346 16.0444 9.33922C16.0521 9.32694 16.0571 9.31325 16.059 9.29904C16.0609 9.28483 16.0597 9.2704 16.0555 9.25665C16.0517 9.24285 16.0451 9.22993 16.0359 9.21865C16.0267 9.20737 16.0153 9.19797 16.0022 9.19102C16.0022 9.19102 15.6893 9.028 15.5739 8.96237C15.2667 8.86652 14.9364 8.86135 14.6261 8.94755C14.567 8.95899 14.5111 8.98227 14.4621 9.01584C14.4132 9.04942 14.3722 9.09253 14.342 9.14232C14.2698 9.29403 14.258 9.46561 14.3087 9.62503L14.12 9.97224C13.9735 10.2326 13.9447 10.9271 13.9425 11.0054C13.9419 11.0205 13.9448 11.0355 13.9509 11.0494C13.9571 11.0633 13.9663 11.0757 13.978 11.0859L14.9391 11.9433C14.9502 11.956 16.6637 13.7217 17.5249 14.793C18.3861 15.8642 20.7322 17.939 22.0639 18.03C23.2669 18.1084 28.1189 16.2453 28.7626 15.9955L31.1642 17.9771C31.1642 18.1232 31.1841 18.5805 31.2063 18.9362C31.233 19.3596 31.5215 21.608 31.5526 21.8599C31.4971 22.0717 30.9799 24.0681 30.5316 25.9142C30.212 27.2269 29.7969 29.5388 29.2931 32.7843C29.1288 33.8429 28.7182 37.5331 28.5828 38.7441L28.5606 38.9346C28.4762 39.6947 28.1167 41.5387 28.0789 41.78L27.0202 43.0503C26.8848 43.1498 25.4976 44.1745 25.2889 44.3206C25.2086 44.3653 25.1194 44.3934 25.027 44.4032C24.8628 44.4307 24.6364 44.4709 24.5831 44.7144C24.5771 44.7723 24.5836 44.8307 24.6024 44.8861C24.6211 44.9415 24.6515 44.9926 24.6919 45.0362C25.0227 45.3626 25.4706 45.5578 25.9459 45.5824C26.3949 45.5919 26.8431 45.542 27.2777 45.4342C27.4236 45.3993 27.5719 45.3745 27.7216 45.3601H27.8792C28.8935 45.3601 29.9678 45.303 30.2297 44.9706C30.536 44.5789 30.2674 43.6474 30.2097 43.4674C30.2319 43.2557 30.4317 41.5874 31.1708 40.4886C32.1141 39.0871 33.3083 37.0504 33.639 35.3059C33.9697 33.5613 34.0718 33.4004 34.6045 32.687L34.6334 32.6488C35.1416 31.9629 37.6853 27.2015 38.269 26.1048C38.7129 27.2332 40.6218 32.2 40.9103 32.9537C40.9591 33.085 41.0191 33.2544 41.0923 33.4576C41.4807 34.5564 42.2021 36.6037 43.3119 37.9713C44.6303 39.61 45.4005 42.0807 45.3761 42.4173C45.2921 42.7687 45.1553 43.1067 44.9699 43.4208C44.8789 43.5987 44.8012 43.7532 44.7613 43.8612C44.7267 43.9458 44.6844 44.0272 44.6348 44.1047C44.5547 44.2025 44.5021 44.3182 44.4819 44.4408C44.4617 44.5634 44.4746 44.6889 44.5193 44.8054C44.5799 44.9651 44.686 45.1055 44.8255 45.211C44.9651 45.3164 45.1327 45.3827 45.3095 45.4025L45.5315 45.4342C45.8609 45.4682 46.185 45.5392 46.497 45.6459C46.8356 45.7753 47.1976 45.84 47.5624 45.8365ZM37.8251 13.0209C37.7973 13.0209 37.7704 13.0307 37.7496 13.0484C37.7335 13.0626 37.7222 13.0811 37.717 13.1014C37.7119 13.1218 37.7132 13.1431 37.7208 13.1628L38.1425 14.306C38.1488 14.3236 38.1604 14.3391 38.1758 14.3505C38.1913 14.3632 39.7828 15.6335 40.3465 16.3131C40.9103 16.9927 41.1878 17.3716 41.1922 17.3716L41.2144 17.3928C41.2344 17.4097 43.3984 19.0272 43.7669 20.6511C43.9711 21.5445 44.1509 24.2332 44.3085 26.6044C44.4483 28.6877 44.5793 30.6566 44.7102 31.1774C44.9322 32.0243 45.598 33.356 46.1507 34.4209C46.3172 34.7469 46.4726 35.0454 46.5946 35.2953C46.9831 36.0955 47.0896 37.2346 47.2006 38.4413C47.2339 38.8076 47.2672 39.176 47.3093 39.5401C47.4581 40.8104 47.7533 43.2197 47.7777 43.3277C47.7777 43.3446 47.8021 43.4018 47.8309 43.4843C48.0202 43.9886 48.1686 44.506 48.2749 45.032C48.2889 45.0998 48.2875 45.1697 48.2706 45.2369C48.2537 45.3041 48.2219 45.3671 48.1772 45.4215C48.0234 45.5592 47.8199 45.6351 47.609 45.6332C47.2546 45.6418 46.902 45.5821 46.5724 45.4575C46.2392 45.3366 45.8907 45.2583 45.5359 45.2246L45.3295 45.1929C45.1899 45.1779 45.0575 45.1259 44.9473 45.0428C44.837 44.9598 44.7534 44.8489 44.7058 44.7229C44.6749 44.6355 44.6683 44.542 44.6865 44.4515C44.7048 44.3609 44.7474 44.2765 44.8101 44.2063C44.8667 44.1184 44.9142 44.0255 44.9522 43.9289C44.9877 43.8337 45.0654 43.6833 45.1519 43.5055C45.3317 43.1519 45.5581 42.7116 45.5781 42.4258C45.6114 42.0023 44.7835 39.4766 43.4717 37.8422C42.3952 36.502 41.6783 34.4759 41.2921 33.3962C41.221 33.1845 41.1589 33.0193 41.1101 32.8881C40.7838 32.0412 38.38 25.8084 38.38 25.8084C38.3723 25.7893 38.359 25.7728 38.3417 25.7607C38.3243 25.7487 38.3037 25.7417 38.2823 25.7406C38.2605 25.7383 38.2385 25.7425 38.2194 25.7528C38.2002 25.763 38.185 25.7788 38.1758 25.7978C38.1447 25.8571 34.9974 31.7872 34.4425 32.5324L34.4136 32.5705C33.872 33.2988 33.7588 33.4512 33.4126 35.2762C33.1551 36.6291 32.3028 38.3948 30.9711 40.3806C30.1565 41.5895 29.9833 43.3975 29.9767 43.4738C29.9733 43.487 29.9733 43.5008 29.9767 43.514C30.0655 43.7934 30.2519 44.5725 30.0366 44.8499C29.8835 45.0447 29.1488 45.1484 27.8636 45.1548H27.6994C27.5368 45.168 27.3757 45.1942 27.2178 45.2331C26.8066 45.3367 26.3822 45.3851 25.957 45.3771C25.5442 45.3573 25.1539 45.1912 24.8628 44.9113C24.8417 44.891 24.8251 44.8669 24.814 44.8403C24.803 44.8137 24.7977 44.7853 24.7984 44.7567C24.814 44.672 24.8672 44.6509 25.0537 44.617C25.1793 44.6038 25.3 44.5633 25.4066 44.4984C25.6285 44.3418 27.0912 43.262 27.1534 43.2155C27.1604 43.2109 27.1664 43.2052 27.1711 43.1985L28.2565 41.9028C28.2685 41.8895 28.2769 41.8735 28.2809 41.8563C28.2809 41.8351 28.676 39.7857 28.767 38.9685L28.7892 38.7758C29.151 35.5303 29.3907 33.5275 29.4995 32.8267C30.0011 29.5854 30.4162 27.2798 30.7336 25.9714C31.2063 24.0279 31.7546 21.9235 31.759 21.9023C31.7623 21.8898 31.7623 21.8767 31.759 21.8642C31.759 21.8388 31.4394 19.3554 31.4127 18.9341C31.3861 18.5128 31.3684 17.9411 31.3684 17.9348C31.3685 17.9202 31.3651 17.9058 31.3586 17.8926C31.3521 17.8794 31.3425 17.8678 31.3306 17.8586L28.8514 15.8028C28.8354 15.7905 28.8163 15.7824 28.7961 15.7794C28.7758 15.7764 28.755 15.7787 28.7359 15.7859C28.6827 15.8071 23.2869 17.9178 22.0772 17.831C20.8675 17.7442 18.5525 15.7435 17.698 14.6807C16.8435 13.6179 15.11 11.829 15.0922 11.812L14.1711 10.9652C14.1746 10.662 14.2247 10.361 14.3198 10.0717C14.4596 9.82193 14.5307 9.6822 14.5307 9.6822C14.5361 9.66979 14.5389 9.65648 14.5389 9.64303C14.5389 9.62958 14.5361 9.61627 14.5307 9.60386C14.4862 9.48837 14.4862 9.36156 14.5307 9.24607C14.5451 9.22211 14.5649 9.20151 14.5887 9.18577C14.6125 9.17002 14.6397 9.15952 14.6683 9.15503C14.9241 9.08222 15.1961 9.07856 15.454 9.14444C15.5339 9.1889 15.707 9.28205 15.8114 9.33498C15.7936 9.44296 15.8225 9.61657 16.0821 9.80923C16.2699 9.95348 16.4804 10.0685 16.7058 10.1501C16.7321 10.2133 16.7442 10.2811 16.7414 10.3491C16.7414 10.6349 16.8501 11.5813 16.8546 11.6194C16.8583 11.6466 16.8725 11.6715 16.8945 11.6892C16.9544 11.7379 18.3772 12.8875 18.8921 13.1522C19.4071 13.4168 21.0584 14.1345 21.1295 14.1663C21.1533 14.1737 21.1789 14.1737 21.2027 14.1663L24.0127 13.4465C24.0269 13.4428 24.0401 13.4364 24.0515 13.4277C24.063 13.4189 24.0724 13.408 24.0793 13.3956C24.097 13.3681 25.7528 10.6434 27.4197 10.2835C27.4419 10.2835 29.7814 9.59539 31.3018 8.47331C32.7667 7.39145 33.5702 6.82406 34.3959 6.76902C35.2215 6.71397 36.318 6.98073 36.7619 7.31312C37.1692 7.68113 37.5407 8.08362 37.8717 8.51565L37.8939 8.53683C37.9294 8.56223 41.4452 11.0964 42.1289 11.7591C42.8125 12.4218 45.527 16.6581 45.9021 17.361C46.2772 18.0639 47.2982 19.1225 47.3426 19.1669C47.3576 19.1834 47.3779 19.1946 47.4003 19.1987C48.6966 19.4612 50.1504 19.7936 50.2858 19.891C50.4212 19.9884 50.8096 21.2502 50.8829 21.5593C50.5134 21.6047 50.1387 21.5933 49.7731 21.5254C49.651 21.4873 49.5023 21.1867 49.4401 20.9962C49.4345 20.9765 49.4228 20.959 49.4066 20.9458C49.3903 20.9326 49.3703 20.9243 49.3491 20.9221C49.3314 20.9221 47.7022 20.7103 47.2627 20.4986C46.8919 20.2781 46.5607 20.0022 46.2817 19.6814C46.2573 19.656 46.093 19.5184 45.4516 18.9806C44.1331 17.8797 41.0457 15.2968 40.8104 14.9475C40.4886 14.4711 40.1446 14.071 40.1446 14.0668C40.1339 14.054 40.1202 14.0439 40.1046 14.0371L37.8162 13.023C37.8185 13.021 37.8207 13.0189 37.8229 13.0167L37.8251 13.0209Z" fill="#263238"/>
<path d="M50.366 21.6821C50.3833 21.6824 50.4004 21.6788 50.4159 21.6714C50.4313 21.664 50.4447 21.6531 50.4548 21.6397L50.6013 21.4534C50.6129 21.4392 50.6204 21.4224 50.6231 21.4046C50.6259 21.3868 50.6237 21.3686 50.6168 21.3518L50.1507 20.2276C50.1398 20.2015 50.1185 20.1806 50.0914 20.1695C50.0644 20.1584 50.0338 20.1579 50.0064 20.1683C49.979 20.1787 49.9571 20.1991 49.9455 20.2249C49.9338 20.2507 49.9334 20.2798 49.9443 20.3059L50.3882 21.3645L50.2772 21.5042C50.2648 21.52 50.2573 21.5387 50.2554 21.5583C50.2536 21.5778 50.2575 21.5975 50.2667 21.6151C50.2759 21.6327 50.2901 21.6475 50.3076 21.6578C50.3252 21.6681 50.3454 21.6736 50.366 21.6736V21.6821Z" fill="#263238"/>
<path d="M51.047 21.7033C51.0624 21.7063 51.0782 21.7063 51.0936 21.7033C51.1205 21.6913 51.1414 21.6697 51.1518 21.6432C51.1622 21.6166 51.1612 21.5873 51.1491 21.5614L50.4655 20.1408C50.4606 20.1266 50.4525 20.1136 50.442 20.1026C50.4314 20.0916 50.4185 20.0828 50.4041 20.0769C50.3897 20.071 50.3742 20.068 50.3585 20.0682C50.3428 20.0685 50.3274 20.0718 50.3132 20.0782C50.299 20.0845 50.2864 20.0936 50.2761 20.1049C50.2659 20.1162 50.2583 20.1295 50.2538 20.1438C50.2493 20.1581 50.248 20.1732 50.2501 20.188C50.2522 20.2028 50.2575 20.217 50.2657 20.2297L50.9471 21.6503C50.957 21.6671 50.9716 21.681 50.9892 21.6903C51.0068 21.6997 51.0268 21.7041 51.047 21.7033Z" fill="#263238"/>
<path d="M49.8754 21.1718C49.9035 21.1724 49.9307 21.1626 49.9514 21.1445C49.9721 21.1263 49.9846 21.1012 49.9863 21.0744C49.9882 21.0465 49.9786 21.0189 49.9595 20.9976C49.9405 20.9762 49.9135 20.9628 49.8842 20.9601L49.3937 20.922C49.3646 20.9197 49.3357 20.9283 49.3133 20.9462C49.2908 20.964 49.2767 20.9895 49.2739 21.0173C49.2723 21.0311 49.2737 21.045 49.278 21.0583C49.2822 21.0716 49.2892 21.0839 49.2985 21.0946C49.3078 21.1052 49.3192 21.114 49.3322 21.1204C49.3451 21.1267 49.3592 21.1305 49.3737 21.1316L49.8665 21.1718H49.8754Z" fill="#263238"/>
<path d="M28.3541 40.8612C28.4718 40.2133 28.6116 39.3961 28.6626 38.9558C28.7536 38.1322 29.2198 33.9382 29.3951 32.8161C29.5704 31.694 30.1542 27.9213 30.6314 25.9544C31.1086 23.9876 31.6568 21.8832 31.6568 21.8832C31.6568 21.8832 31.5969 21.4132 31.5259 20.8458C32.4936 21.0427 34.2404 21.193 36.7641 20.6172C39.6096 19.9693 41.3608 18.7498 42.1599 18.0766C42.8258 18.7117 43.6537 19.6687 43.8756 20.6426C44.2574 22.3236 44.5415 30.0617 44.8189 31.1668C45.0964 32.272 46.1773 34.1732 46.7011 35.2423C47.2249 36.3115 47.2449 37.9649 47.4269 39.5189C47.4669 39.8619 47.5113 40.2324 47.5557 40.6029C46.7587 40.9634 45.8514 41.0349 45.0032 40.804C44.6029 39.7684 44.0539 38.7909 43.3718 37.8993C42.0866 36.2988 41.3187 33.7603 40.9946 32.9113C40.6705 32.0624 38.2667 25.8338 38.2667 25.8338C38.2667 25.8338 35.0905 31.821 34.5245 32.5811C33.9586 33.3411 33.8587 33.4491 33.5124 35.2825C33.1662 37.116 31.8677 39.2246 31.0576 40.4251C30.8927 40.6777 30.7523 40.9442 30.6381 41.2211C29.857 41.2902 29.0704 41.1662 28.3541 40.8612Z" fill="#263238"/>
<path d="M30.2544 41.3396C30.3854 41.3396 30.5163 41.3396 30.6517 41.3269C30.6729 41.3263 30.6935 41.3197 30.7108 41.308C30.7282 41.2964 30.7416 41.2801 30.7494 41.2613C30.8597 40.9888 30.9988 40.7278 31.1645 40.4822C32.1078 39.0806 33.3019 37.044 33.6326 35.2994C33.9633 33.5549 34.0654 33.394 34.5981 32.6806L34.627 32.6424C35.1353 31.9565 37.6789 27.1951 38.2627 26.0984C38.7066 27.2268 40.6154 32.1936 40.9039 32.9473C40.9528 33.0786 41.0127 33.2479 41.086 33.4512C41.4744 34.55 42.1957 36.5972 43.3055 37.9649C43.9743 38.8497 44.5127 39.8178 44.9058 40.8421C44.9121 40.8577 44.9223 40.8716 44.9354 40.8827C44.9485 40.8937 44.9643 40.9016 44.9813 40.9056C45.8552 41.142 46.7894 41.0667 47.6093 40.6939C47.6306 40.6849 47.6482 40.6694 47.6595 40.6499C47.6707 40.6304 47.6749 40.6079 47.6714 40.5859C47.6293 40.2154 47.5849 39.8449 47.5449 39.5041C47.505 39.1632 47.4672 38.7737 47.4339 38.4095C47.3207 37.1837 47.212 36.0256 46.8102 35.1936C46.6859 34.9416 46.5328 34.641 46.3663 34.315C45.8247 33.2564 45.15 31.948 44.9414 31.116C44.8171 30.6121 44.6861 28.6516 44.5463 26.5769C44.3798 24.0829 44.2067 21.4957 44.0003 20.5938C43.7783 19.5945 42.926 18.6186 42.2534 17.9771C42.2326 17.9588 42.2052 17.9486 42.1769 17.9486C42.1485 17.9486 42.1212 17.9588 42.1003 17.9771C41.3168 18.6418 39.5811 19.8528 36.7556 20.4986C34.2918 21.0596 32.5739 20.922 31.564 20.7251C31.5467 20.7218 31.5289 20.7224 31.512 20.7268C31.495 20.7312 31.4794 20.7393 31.4663 20.7505C31.4532 20.7619 31.4431 20.7761 31.437 20.7919C31.4308 20.8077 31.4287 20.8248 31.4308 20.8415C31.493 21.3412 31.5484 21.7667 31.5595 21.8599C31.504 22.0716 30.9869 24.0681 30.5385 25.9142C30.2189 27.2268 29.8039 29.5387 29.3 32.7843C29.1358 33.8429 28.7251 37.533 28.5897 38.744L28.5675 38.9346C28.5165 39.3876 28.3722 40.2239 28.2612 40.84C28.2566 40.8624 28.2599 40.8856 28.2708 40.906C28.2817 40.9264 28.2994 40.9426 28.3212 40.9522C28.9274 41.2167 29.5878 41.349 30.2544 41.3396ZM30.5696 41.1279C29.8559 41.1819 29.139 41.0723 28.4788 40.8082C28.5875 40.1943 28.7229 39.4046 28.7717 38.9663L28.7939 38.7737C29.1557 35.5281 29.3954 33.5253 29.5042 32.8245C30.0058 29.5832 30.4209 27.2776 30.7383 25.9692C31.2111 24.0257 31.7593 21.9213 31.7637 21.9001C31.767 21.8876 31.767 21.8745 31.7637 21.862L31.6528 20.9686C32.7004 21.1612 34.405 21.2565 36.7889 20.7124C39.57 20.0773 41.319 18.9001 42.1513 18.2099C42.7884 18.8324 43.5586 19.7385 43.765 20.651C43.9714 21.5635 44.149 24.2332 44.3066 26.6044C44.4464 28.6876 44.5773 30.6566 44.7083 31.1774C44.9303 32.0242 45.5961 33.3559 46.1488 34.4208C46.3153 34.7469 46.4706 35.0454 46.5927 35.2952C46.9811 36.0955 47.0877 37.2345 47.1987 38.4413C47.232 38.8075 47.2652 39.1759 47.3074 39.5401C47.3451 39.8597 47.3873 40.2027 47.4273 40.5478C46.6892 40.8631 45.8595 40.9251 45.079 40.7235C44.6796 39.6992 44.1376 38.7307 43.4676 37.8442C42.3911 36.5041 41.6741 34.478 41.2879 33.3983C41.2169 33.1865 41.1548 33.0214 41.1059 32.8901C40.7797 32.0433 38.3758 25.8105 38.3758 25.8105C38.3682 25.7914 38.3549 25.7748 38.3375 25.7628C38.3202 25.7508 38.2996 25.7438 38.2782 25.7427C38.2563 25.74 38.2342 25.7441 38.215 25.7544C38.1958 25.7647 38.1806 25.7807 38.1716 25.7999C38.1406 25.8591 34.9932 31.7892 34.4383 32.5345L34.4095 32.5726C33.8679 33.3009 33.7547 33.4533 33.4084 35.2783C33.151 36.6311 32.2986 38.3968 30.9669 40.3827C30.8124 40.6168 30.6794 40.8633 30.5696 41.1194V41.1279Z" fill="#263238"/>
<path d="M24.006 13.3448C24.006 13.3448 25.684 10.5481 27.4174 10.1818C27.4174 10.1818 29.7436 9.51282 31.2662 8.38862C32.7888 7.26442 33.5768 6.72032 34.4202 6.66316C35.2636 6.60599 36.4178 6.88546 36.8617 7.23055C37.2786 7.60344 37.6583 8.01238 37.9959 8.45214C37.9959 8.45214 39.8138 9.7584 41.1033 10.7513C41.0878 11.3463 40.9813 12.1656 40.5595 12.625C40.1359 13.0608 39.6328 13.4195 39.0747 13.6836L37.8273 13.1289L38.249 14.2721C38.249 14.2721 39.8582 15.5424 40.4353 16.2495C41.0123 16.9567 41.2831 17.3081 41.2831 17.3081C41.7674 17.6793 42.2168 18.0902 42.626 18.536C40.8031 20.1003 38.6011 21.2076 36.2181 21.7583C34.0518 22.2241 32.5669 22.0907 31.6568 21.8684C31.6568 21.7753 31.3372 19.3575 31.3106 18.9362C31.2839 18.5149 31.2662 17.9348 31.2662 17.9348L28.7869 15.879C28.7869 15.879 27.5506 16.3639 26.1234 16.8614C25.5108 16.3279 24.532 15.2439 23.9039 13.3787L24.006 13.3448Z" fill="#CF4E16"/>
<path d="M33.5016 22.1711C34.4241 22.1627 35.3427 22.0562 36.2405 21.8536C39.6187 21.1253 42.038 19.186 42.6995 18.608C42.7198 18.5882 42.7312 18.5616 42.7312 18.5339C42.7312 18.5062 42.7198 18.4796 42.6995 18.4598C42.2886 18.0141 41.8394 17.602 41.3566 17.2276C41.3034 17.1578 41.0281 16.8042 40.5132 16.1691C39.9694 15.5106 38.5444 14.361 38.3358 14.1938L38.0095 13.3173L39.0194 13.764C39.0347 13.7708 39.0514 13.7744 39.0683 13.7744C39.0851 13.7744 39.1018 13.7708 39.1171 13.764C39.6879 13.4981 40.2019 13.1334 40.6331 12.6885C41.077 12.2079 41.1902 11.3674 41.2057 10.7471C41.2064 10.731 41.2032 10.715 41.1962 10.7003C41.1893 10.6856 41.1789 10.6726 41.1658 10.6624C39.945 9.72453 38.2337 8.48812 38.0694 8.36956C37.7298 7.92622 37.3462 7.51502 36.9241 7.14162C36.4358 6.77112 35.2595 6.49378 34.4049 6.55094C33.5171 6.61234 32.6914 7.18608 31.191 8.29969C29.6906 9.41331 27.4022 10.0675 27.38 10.0739C25.7175 10.4253 24.1438 12.8939 23.9263 13.2496L23.8642 13.2644C23.8353 13.2723 23.8106 13.2905 23.7954 13.3152C23.7842 13.3424 23.7842 13.3726 23.7954 13.3999C24.4479 15.3307 25.4867 16.438 26.046 16.927C26.0613 16.9397 26.0798 16.9483 26.0996 16.9521C26.1195 16.9558 26.1401 16.9544 26.1592 16.9482C27.3933 16.5248 28.4942 16.1013 28.7672 15.9891L31.1644 17.9771C31.1644 18.1232 31.1843 18.5805 31.2065 18.9362C31.2354 19.3723 31.5506 21.8515 31.555 21.8747C31.5571 21.8962 31.5661 21.9164 31.5808 21.9328C31.5956 21.9491 31.6152 21.9606 31.6371 21.9658C32.2473 22.1078 32.8736 22.1767 33.5016 22.1711ZM42.4686 18.5212C41.7162 19.1564 39.3901 20.958 36.1917 21.6482C34.072 22.1055 32.6204 21.9764 31.7525 21.7774C31.6993 21.3645 31.4396 19.3045 31.4152 18.9235C31.3885 18.5 31.3708 17.9305 31.3708 17.9242C31.3709 17.9096 31.3675 17.8952 31.361 17.882C31.3545 17.8688 31.3449 17.8572 31.333 17.848L28.8538 15.7922C28.8379 15.7799 28.8188 15.7718 28.7985 15.7688C28.7782 15.7658 28.7574 15.7681 28.7384 15.7753C28.7384 15.7753 27.5242 16.2495 26.1392 16.7322C25.1655 15.8189 24.4434 14.6902 24.0373 13.4464C24.0627 13.4376 24.084 13.4203 24.0972 13.3977C24.115 13.3702 25.7708 10.6455 27.4377 10.2856C27.4688 10.2856 29.8082 9.59538 31.3286 8.47329C32.7935 7.39144 33.597 6.82405 34.4227 6.76901C35.2484 6.71396 36.3448 6.98072 36.7888 7.31311C37.196 7.68112 37.5675 8.08361 37.8985 8.51564L37.9207 8.53681C37.9385 8.54952 39.7097 9.82614 40.9815 10.8021C40.9616 11.3801 40.8528 12.1338 40.4644 12.5551C40.0627 12.9662 39.5878 13.306 39.0616 13.5587L37.863 13.0272C37.8432 13.0186 37.8212 13.0157 37.7997 13.0189C37.7782 13.0221 37.7581 13.0313 37.7421 13.0453C37.726 13.0593 37.7146 13.0775 37.7092 13.0976C37.7039 13.1177 37.7049 13.1389 37.7121 13.1585L38.1338 14.3018C38.1401 14.3194 38.1517 14.3348 38.1671 14.3462C38.1826 14.3589 39.7741 15.6292 40.3378 16.3088C40.9016 16.9884 41.1791 17.3674 41.1835 17.3674L41.2057 17.3885C41.6577 17.7333 42.08 18.1121 42.4686 18.5212Z" fill="#263238"/>
<path d="M37.6011 10.7196C37.6302 10.7169 37.657 10.7034 37.6757 10.682C37.6944 10.6606 37.7035 10.633 37.701 10.6053L37.6699 10.2559C37.6671 10.2282 37.653 10.2027 37.6305 10.1848C37.6081 10.167 37.5792 10.1583 37.5501 10.1607C37.5355 10.1617 37.5213 10.1655 37.5082 10.1719C37.4952 10.1782 37.4836 10.1869 37.4741 10.1976C37.4646 10.2082 37.4574 10.2205 37.4529 10.2338C37.4485 10.2471 37.4468 10.2611 37.448 10.275L37.4791 10.6243C37.4824 10.6522 37.497 10.6778 37.5198 10.6956C37.5426 10.7134 37.5718 10.722 37.6011 10.7196Z" fill="#263238"/>
<path d="M37.8231 13.2284C37.8376 13.2274 37.8517 13.2235 37.8647 13.2172C37.8776 13.2108 37.8891 13.202 37.8984 13.1914C37.9077 13.1807 37.9147 13.1684 37.9189 13.1551C37.9231 13.1418 37.9245 13.1279 37.923 13.1141L37.7388 11.0393C37.7354 11.0118 37.7211 10.9865 37.6988 10.9688C37.6765 10.9511 37.6479 10.9422 37.6189 10.944C37.6043 10.9451 37.5901 10.9489 37.577 10.9552C37.564 10.9616 37.5524 10.9703 37.5429 10.9809C37.5334 10.9915 37.5262 11.0039 37.5217 11.0171C37.5173 11.0304 37.5156 11.0444 37.5168 11.0583L37.7032 13.1331C37.7043 13.147 37.7084 13.1605 37.715 13.1728C37.7217 13.1851 37.7309 13.1961 37.7421 13.2049C37.7532 13.2138 37.7662 13.2205 37.7801 13.2245C37.794 13.2285 37.8086 13.2299 37.8231 13.2284Z" fill="#263238"/>
<path d="M34.1875 11.8163C34.2054 11.8158 34.2229 11.8113 34.2387 11.8032C34.2545 11.7951 34.2681 11.7837 34.2785 11.7697C34.295 11.7469 34.3014 11.7188 34.2965 11.6915C34.2915 11.6641 34.2755 11.6398 34.2518 11.6236C33.4421 11.1096 32.5573 10.7122 31.6261 10.4444C31.599 10.4386 31.5706 10.4427 31.5465 10.456C31.5225 10.4692 31.5045 10.4906 31.4961 10.5158C31.4878 10.5411 31.4896 10.5684 31.5014 10.5924C31.5131 10.6164 31.5338 10.6354 31.5595 10.6455C32.4684 10.9071 33.3321 11.2944 34.1231 11.7951C34.1414 11.809 34.1641 11.8164 34.1875 11.8163Z" fill="#263238"/>
<path d="M31.0509 10.4994C31.0803 10.5031 31.1101 10.4954 31.1336 10.4781C31.1571 10.4609 31.1725 10.4354 31.1763 10.4073C31.1801 10.3792 31.1721 10.3509 31.154 10.3284C31.1359 10.306 31.1092 10.2913 31.0798 10.2877C30.7624 10.2051 30.567 10.167 30.5604 10.167C30.5309 10.1614 30.5004 10.1672 30.4754 10.183C30.4504 10.1989 30.4331 10.2236 30.4272 10.2517C30.4213 10.2798 30.4274 10.3089 30.444 10.3328C30.4607 10.3566 30.4866 10.3731 30.516 10.3787C30.516 10.3787 30.7135 10.4168 31.022 10.4952L31.0509 10.4994Z" fill="#263238"/>
<path d="M35.3459 12.1253C35.3618 12.1252 35.3775 12.1219 35.392 12.1157C35.4065 12.1096 35.4195 12.1006 35.4302 12.0893C35.449 12.0676 35.4581 12.0397 35.4557 12.0116C35.4532 11.9835 35.4393 11.9575 35.4169 11.939C35.1017 11.685 33.7633 10.8127 33.7078 10.7746C33.683 10.7592 33.6529 10.7536 33.6238 10.7592C33.5948 10.7647 33.5691 10.7809 33.5525 10.8042C33.5362 10.8273 33.5301 10.8556 33.5355 10.8829C33.5409 10.9103 33.5574 10.9345 33.5813 10.9503C33.5946 10.9503 34.9663 11.8543 35.2726 12.1021C35.2939 12.1169 35.3195 12.125 35.3459 12.1253Z" fill="#263238"/>
<path d="M29.9213 16.1479C29.9359 16.149 29.9505 16.1473 29.9644 16.1431C29.9783 16.1388 29.9912 16.1319 30.0024 16.1229C30.0135 16.1138 30.0226 16.1028 30.0293 16.0903C30.036 16.0779 30.04 16.0644 30.0411 16.0505C30.0423 16.0366 30.0406 16.0226 30.0361 16.0093C30.0316 15.9961 30.0244 15.9838 30.0149 15.9732C30.0054 15.9625 29.9939 15.9538 29.9808 15.9475C29.9678 15.9411 29.9536 15.9373 29.9391 15.9362L28.8026 15.7689C28.7738 15.7646 28.7444 15.7713 28.7207 15.7876C28.697 15.8038 28.681 15.8283 28.6761 15.8557C28.6736 15.8694 28.6739 15.8833 28.6772 15.8969C28.6804 15.9104 28.6864 15.9231 28.6949 15.9344C28.7034 15.9456 28.7142 15.9551 28.7266 15.9623C28.739 15.9696 28.7527 15.9743 28.7671 15.9764L29.9035 16.1458L29.9213 16.1479Z" fill="#263238"/>
<path d="M24.6917 44.7292C24.745 44.4455 25.1356 44.5577 25.3576 44.4011C25.4752 44.3185 25.9702 43.9544 26.4008 43.6368C26.3791 43.7677 26.3746 43.9007 26.3875 44.0327L26.4208 44.2762C27.3571 44.1486 28.2849 43.9698 29.1997 43.7405C29.5703 43.6304 29.8655 43.5436 30.1008 43.4822C30.1363 43.5944 30.4204 44.5408 30.1408 44.9007C29.8611 45.2606 28.0189 45.2416 27.7192 45.25C27.4196 45.2585 26.6494 45.5189 25.9658 45.4723C25.2821 45.4258 24.6407 45.0108 24.6917 44.7292Z" fill="white"/>
<path d="M26.1238 45.5824C26.5101 45.57 26.8939 45.5189 27.2691 45.43C27.415 45.3951 27.5633 45.3703 27.713 45.3559H27.8706C28.8849 45.3559 29.9592 45.2987 30.2211 44.9663C30.5252 44.5789 30.2566 43.6389 30.1989 43.4547C30.1953 43.4413 30.1889 43.4287 30.1801 43.4177C30.1713 43.4067 30.1602 43.3976 30.1475 43.3909C30.1348 43.3841 30.1208 43.3799 30.1064 43.3785C30.0919 43.3771 30.0773 43.3785 30.0635 43.3827C29.8327 43.4434 29.5308 43.5302 29.1579 43.6431C28.284 43.8621 27.3977 44.0331 26.5033 44.1555L26.4856 44.02C26.4728 43.8979 26.4773 43.7747 26.4989 43.6537C26.5018 43.6327 26.4983 43.6114 26.4889 43.5922C26.4795 43.5731 26.4644 43.5569 26.4456 43.5457C26.4272 43.5339 26.4056 43.5276 26.3834 43.5276C26.3613 43.5276 26.3397 43.5339 26.3213 43.5457C25.8907 43.8633 25.398 44.2253 25.2781 44.3079C25.1978 44.3526 25.1086 44.3807 25.0162 44.3905C24.8519 44.418 24.6255 44.4582 24.5723 44.7017C24.5663 44.7596 24.5728 44.818 24.5915 44.8734C24.6102 44.9288 24.6407 44.9799 24.681 45.0235C25.0119 45.3499 25.4598 45.5451 25.9351 45.5697L26.1238 45.5824ZM30.0147 43.6135C30.1212 43.9988 30.2233 44.6043 30.0413 44.8372C29.8882 45.032 29.1535 45.1357 27.8683 45.1421H27.7041C27.5415 45.1553 27.3804 45.1815 27.2224 45.2204C26.8113 45.324 26.3869 45.3724 25.9617 45.3643C25.5489 45.3446 25.1586 45.1785 24.8675 44.8986C24.8464 44.8783 24.8298 44.8542 24.8187 44.8276C24.8077 44.801 24.8023 44.7726 24.8031 44.744C24.8186 44.6593 24.8719 44.6382 25.0584 44.6043C25.184 44.5911 25.3047 44.5506 25.4113 44.4857C25.5134 44.4138 25.884 44.1428 26.2592 43.8675C26.2535 43.926 26.2535 43.9848 26.2592 44.0433L26.2902 44.2867C26.2942 44.315 26.3093 44.3407 26.3324 44.3587C26.3571 44.3749 26.3869 44.3824 26.4167 44.3799C27.3591 44.2516 28.2929 44.0714 29.2134 43.84C29.5375 43.7469 29.8016 43.6728 30.0147 43.6135Z" fill="#263238"/>
<path d="M44.6013 44.7588C44.4481 44.4053 44.7322 44.1957 44.8454 43.8887C44.8787 43.7998 44.9431 43.677 45.0163 43.5245C45.0163 43.5245 45.1317 44.0157 45.3803 44.0813C45.6289 44.147 45.68 44.1512 46.5079 43.9162C46.9953 43.7829 47.4959 43.6977 48.0017 43.6621C48.1631 44.1023 48.2878 44.554 48.3745 45.0129C48.45 45.5909 47.9018 45.7242 47.6021 45.7306C47.2277 45.7394 46.8554 45.6753 46.5079 45.5422C46.2482 45.4109 45.5956 45.3304 45.3004 45.2881C45.1443 45.2692 44.9966 45.2099 44.8733 45.1166C44.7501 45.0233 44.656 44.8996 44.6013 44.7588Z" fill="white"/>
<path d="M47.5627 45.8364H47.6137C47.8862 45.8375 48.148 45.7355 48.3418 45.5528C48.4078 45.4768 48.4557 45.388 48.4822 45.2926C48.5086 45.1971 48.513 45.0974 48.4949 45.0002C48.4093 44.5337 48.2831 44.0748 48.1176 43.6283C48.1093 43.6058 48.0936 43.5866 48.0727 43.5736C48.0518 43.5606 48.027 43.5545 48.0022 43.5563C47.489 43.5931 46.981 43.6796 46.4862 43.8146C45.6694 44.0454 45.6361 44.0369 45.4186 43.9797C45.2921 43.9458 45.1766 43.6791 45.1345 43.5012C45.1308 43.486 45.1237 43.4717 45.1137 43.4593C45.1038 43.4469 45.0912 43.4367 45.0768 43.4293C45.0624 43.4235 45.0469 43.4205 45.0313 43.4205C45.0156 43.4205 45.0002 43.4235 44.9858 43.4293C44.9716 43.4329 44.9584 43.4393 44.9469 43.448C44.9354 43.4568 44.926 43.4677 44.9192 43.4801C44.8534 43.6028 44.7941 43.7285 44.7416 43.8569C44.7071 43.9415 44.6647 44.023 44.6151 44.1004C44.535 44.1982 44.4824 44.3139 44.4622 44.4365C44.442 44.5591 44.4549 44.6846 44.4997 44.8012C44.5603 44.9608 44.6663 45.1013 44.8059 45.2067C44.9454 45.3122 45.113 45.3785 45.2898 45.3982L45.5118 45.43C45.8413 45.4639 46.1654 45.535 46.4773 45.6417C46.8219 45.7749 47.1909 45.8412 47.5627 45.8364ZM47.9334 43.7722C48.0827 44.1796 48.1963 44.5981 48.273 45.0235C48.287 45.0913 48.2855 45.1612 48.2687 45.2284C48.2518 45.2956 48.22 45.3586 48.1753 45.413C48.0215 45.5507 47.818 45.6266 47.6071 45.6247C47.2527 45.6333 46.9001 45.5736 46.5705 45.449C46.2371 45.3284 45.8887 45.2494 45.534 45.214L45.3276 45.1844C45.188 45.1694 45.0556 45.1174 44.9454 45.0343C44.8351 44.9513 44.7515 44.8404 44.7039 44.7144C44.673 44.627 44.6664 44.5335 44.6846 44.443C44.7029 44.3524 44.7455 44.268 44.8082 44.1978C44.8648 44.1099 44.9123 44.017 44.9502 43.9204C44.9636 43.8866 44.9813 43.8442 45.0035 43.7998C45.0307 43.8844 45.0767 43.9624 45.1384 44.0285C45.2001 44.0946 45.2759 44.1473 45.3609 44.183C45.6361 44.2571 45.7049 44.2571 46.5483 44.0178C47.0007 43.8938 47.4645 43.8116 47.9334 43.7722Z" fill="#263238"/>
<path d="M15.9598 9.28203L16.9076 8.82262C16.9725 8.7909 17.0473 8.78287 17.118 8.80002C17.1887 8.81717 17.2504 8.85833 17.2916 8.91577C17.3138 8.94541 17.3404 8.9814 17.3693 9.02374C17.5912 9.34766 17.3337 9.47257 17.3337 9.47257L16.4459 9.93623C16.4459 9.93623 15.9909 9.58902 15.9598 9.28203Z" fill="#CF4E16"/>
<path d="M16.4531 10.0379C16.4734 10.0432 16.4949 10.0432 16.5152 10.0379L17.4031 9.57427C17.445 9.55169 17.4817 9.52131 17.511 9.48494C17.5404 9.44858 17.5618 9.40696 17.574 9.36256C17.5879 9.2946 17.5861 9.22457 17.5689 9.15732C17.5516 9.09006 17.5193 9.02718 17.4741 8.97301C17.4452 8.92855 17.4186 8.89256 17.3964 8.8608C17.3387 8.78362 17.2542 8.72849 17.1578 8.70523C17.0615 8.68197 16.9596 8.69208 16.8704 8.73377L15.9226 9.19319C15.9023 9.20271 15.8857 9.21801 15.8749 9.23698C15.8642 9.25595 15.8599 9.27765 15.8627 9.29905C15.8982 9.64202 16.3466 9.98711 16.3976 10.0252C16.4147 10.0339 16.4338 10.0383 16.4531 10.0379ZM17.0457 8.89255C17.0763 8.89278 17.1064 8.90002 17.1334 8.91366C17.1605 8.92729 17.1837 8.94691 17.2011 8.97089L17.2766 9.07886C17.3022 9.108 17.3215 9.14174 17.3334 9.1781C17.3452 9.21445 17.3493 9.25269 17.3454 9.29058C17.3414 9.30734 17.3338 9.32314 17.3231 9.33699C17.3124 9.35083 17.2988 9.36242 17.2832 9.37103L16.4664 9.79445C16.3035 9.66739 16.1729 9.50668 16.0846 9.32445L16.9592 8.90102C16.9871 8.89245 17.017 8.89098 17.0457 8.89679V8.89255Z" fill="#263238"/>
</svg>
