<svg width="145" height="120" viewBox="0 0 145 120" fill="none" xmlns="http://www.w3.org/2000/svg">
<path d="M144.538 118.706H0V119.005H144.538V118.706Z" fill="#263238"/>
<path d="M48.7028 5.28206L16.7708 3.16113L14.6873 34.5296L46.6193 36.6506L48.7028 5.28206Z" fill="white"/>
<path d="M46.6186 36.7983L14.6849 34.6765C14.6653 34.6754 14.6461 34.6704 14.6284 34.6618C14.6107 34.6532 14.5949 34.6412 14.5818 34.6265C14.5688 34.6118 14.5588 34.5946 14.5523 34.5761C14.5459 34.5575 14.5433 34.5378 14.5445 34.5182L16.6363 3.1403C16.6373 3.12076 16.6423 3.10163 16.651 3.08413C16.6598 3.06663 16.6721 3.05116 16.6871 3.03869C16.7017 3.02572 16.7187 3.01585 16.7372 3.00968C16.7557 3.00351 16.7753 3.00118 16.7947 3.00283L48.7135 5.14549C48.733 5.14662 48.7521 5.15164 48.7696 5.16027C48.7872 5.16889 48.8028 5.18094 48.8156 5.1957C48.8284 5.21046 48.8381 5.22763 48.8442 5.24621C48.8503 5.26479 48.8526 5.2844 48.8509 5.30387L46.7591 36.6817C46.7566 36.7219 46.7384 36.7595 46.7083 36.7863C46.6803 36.7995 46.649 36.8036 46.6186 36.7983ZM14.8433 34.3867L46.4782 36.4785L48.5431 5.3995L16.9083 3.30765L14.8433 34.3867Z" fill="#263238"/>
<path d="M20.6194 12.4268L20.5984 12.7249L42.3655 14.2584L42.3865 13.9603L20.6194 12.4268Z" fill="#263238"/>
<path d="M20.418 15.9938L20.3971 16.2927L43.3657 17.9005L43.3866 17.6016L20.418 15.9938Z" fill="#263238"/>
<path d="M20.1448 20.6695L20.1129 20.9667L42.4544 23.3622L42.4862 23.065L20.1448 20.6695Z" fill="#263238"/>
<path d="M36.8139 25.3708H19.9386V25.6696H36.8139V25.3708Z" fill="#263238"/>
<path d="M59.8615 30.8948L28.0848 34.6895L31.8126 65.9053L63.5893 62.1106L59.8615 30.8948Z" fill="white"/>
<path d="M31.8137 66.0485C31.777 66.0487 31.7415 66.0355 31.714 66.0112C31.6864 65.987 31.6687 65.9534 31.6643 65.917L27.9289 34.7035C27.9247 34.6642 27.9353 34.6248 27.9588 34.5929C27.9851 34.5629 28.021 34.5428 28.0604 34.5362L59.8387 30.7409C59.8581 30.7384 59.8779 30.7399 59.8968 30.7452C59.9157 30.7505 59.9334 30.7596 59.9487 30.7718C59.964 30.7841 59.9767 30.7993 59.9861 30.8166C59.9954 30.8339 60.0012 30.8529 60.003 30.8724L63.7325 62.0859C63.735 62.1054 63.7337 62.1252 63.7286 62.1442C63.7234 62.1631 63.7146 62.1809 63.7026 62.1965C63.6769 62.2267 63.6405 62.246 63.601 62.2503L31.8347 66.0485H31.8137ZM28.2516 34.8171L31.9452 65.7347L63.4277 61.9724L59.7341 31.0547L28.2516 34.8171Z" fill="#263238"/>
<path d="M59.1407 38.0265L36.3206 40.8123L36.3568 41.109L59.1769 38.3232L59.1407 38.0265Z" fill="#263238"/>
<path d="M59.232 41.6809L36.1196 45.3126L36.166 45.6078L59.2784 41.9761L59.232 41.6809Z" fill="#263238"/>
<path d="M58.6523 45.9873L37.172 50.2016L37.2295 50.4948L58.7098 46.2806L58.6523 45.9873Z" fill="#263238"/>
<path d="M59.8105 51.6536L37.4673 54.4247L37.5041 54.7212L59.8472 51.9501L59.8105 51.6536Z" fill="#263238"/>
<path d="M23.9939 7.6737C23.9485 7.67395 23.9036 7.66385 23.8627 7.64417C23.8218 7.6245 23.7859 7.59576 23.7578 7.56015L23.0376 6.63973C22.9885 6.57751 22.9661 6.49832 22.9753 6.41958C22.9846 6.34084 23.0247 6.269 23.0869 6.21986C23.1491 6.17072 23.2283 6.14831 23.3071 6.15756C23.3858 6.16681 23.4576 6.20695 23.5068 6.26917L24.227 7.1866C24.2516 7.21735 24.27 7.25268 24.2809 7.29054C24.2919 7.32841 24.2952 7.36807 24.2908 7.40723C24.2863 7.44639 24.2742 7.48429 24.255 7.51874C24.2359 7.55319 24.2101 7.58351 24.1792 7.60796C24.1266 7.65014 24.0613 7.67331 23.9939 7.6737Z" fill="#263238"/>
<path d="M23.8184 6.62087C24.7777 5.66158 24.7777 4.10625 23.8184 3.14695C22.8591 2.18765 21.3038 2.18765 20.3445 3.14695C19.3852 4.10625 19.3852 5.66158 20.3445 6.62088C21.3038 7.58017 22.8591 7.58017 23.8184 6.62087Z" fill="#CF4E16"/>
<path d="M22.081 7.48838C21.5656 7.48838 21.0617 7.33556 20.6332 7.04922C20.2047 6.76288 19.8707 6.35591 19.6735 5.87975C19.4762 5.40359 19.4246 4.87964 19.5252 4.37415C19.6257 3.86867 19.8739 3.40435 20.2383 3.03991C20.6028 2.67547 21.0671 2.42729 21.5726 2.32674C22.0781 2.2262 22.602 2.2778 23.0782 2.47503C23.5543 2.67226 23.9613 3.00626 24.2476 3.43479C24.534 3.86332 24.6868 4.36714 24.6868 4.88253C24.6852 5.57316 24.4102 6.23505 23.9218 6.7234C23.4335 7.21176 22.7716 7.48681 22.081 7.48838ZM22.081 2.57551C21.6247 2.57551 21.1786 2.71082 20.7992 2.96431C20.4199 3.21781 20.1242 3.57812 19.9495 3.99967C19.7749 4.42123 19.7292 4.88509 19.8183 5.33261C19.9073 5.78013 20.127 6.1912 20.4496 6.51384C20.7723 6.83648 21.1834 7.0562 21.6309 7.14522C22.0784 7.23424 22.5423 7.18855 22.9638 7.01394C23.3854 6.83932 23.7457 6.54363 23.9992 6.16424C24.2527 5.78485 24.388 5.33882 24.388 4.88253C24.3872 4.27091 24.1439 3.68457 23.7114 3.25209C23.2789 2.81961 22.6926 2.5763 22.081 2.57551Z" fill="#263238"/>
<path d="M23.1475 4.23111C23.1475 4.53207 23.0582 4.82628 22.8909 5.07648C22.7237 5.32669 22.4859 5.52164 22.2078 5.63668C21.9297 5.75172 21.6237 5.78167 21.3286 5.72273C21.0334 5.6638 20.7624 5.51863 20.5498 5.30561C20.3372 5.09258 20.1926 4.82127 20.1342 4.52602C20.0759 4.23076 20.1064 3.92483 20.222 3.64694C20.3376 3.36905 20.533 3.1317 20.7835 2.96492C21.0341 2.79814 21.3284 2.70943 21.6294 2.71002C21.829 2.71002 22.0267 2.74939 22.2111 2.82587C22.3954 2.90235 22.5629 3.01444 22.7039 3.15572C22.8449 3.297 22.9567 3.46471 23.0328 3.64924C23.1089 3.83377 23.1479 4.0315 23.1475 4.23111Z" fill="#CF4E16"/>
<path d="M21.6359 5.89861C21.3052 5.8992 20.9819 5.80166 20.7067 5.61833C20.4315 5.435 20.2169 5.17413 20.0901 4.86877C19.9633 4.5634 19.93 4.22727 19.9944 3.90295C20.0587 3.57863 20.2179 3.2807 20.4517 3.0469C20.6855 2.81309 20.9834 2.65393 21.3077 2.58957C21.6321 2.52521 21.9682 2.55854 22.2736 2.68535C22.5789 2.81216 22.8398 3.02673 23.0231 3.3019C23.2064 3.57707 23.304 3.90046 23.3034 4.2311C23.3026 4.67311 23.1267 5.09679 22.8141 5.40934C22.5016 5.72188 22.0779 5.89782 21.6359 5.89861ZM21.6359 2.85944C21.3645 2.85885 21.099 2.93879 20.873 3.08915C20.6471 3.23951 20.4708 3.45353 20.3665 3.70412C20.2622 3.9547 20.2346 4.23059 20.2872 4.49686C20.3398 4.76313 20.4702 5.00782 20.6619 5.19995C20.8536 5.39208 21.098 5.52302 21.3642 5.57618C21.6304 5.62935 21.9063 5.60236 22.1571 5.49863C22.4079 5.39491 22.6223 5.2191 22.7732 4.99347C22.924 4.76783 23.0046 4.50252 23.0046 4.2311C23.0038 3.86807 22.8594 3.52009 22.603 3.26311C22.3466 3.00613 21.9989 2.86102 21.6359 2.85944Z" fill="#263238"/>
<path d="M22.9777 3.18216C22.9783 3.6037 22.8539 4.01595 22.6201 4.36673C22.3863 4.71752 22.0538 4.99108 21.6645 5.15281C21.2752 5.31453 20.8467 5.35716 20.4332 5.27528C20.0197 5.1934 19.6397 4.99071 19.3414 4.69284C19.0432 4.39498 18.8399 4.01533 18.7575 3.60193C18.675 3.18853 18.717 2.75997 18.8782 2.37046C19.0394 1.98095 19.3125 1.648 19.6629 1.41374C20.0134 1.17948 20.4255 1.05444 20.847 1.05444C21.4116 1.05444 21.9531 1.27852 22.3526 1.67746C22.7521 2.07639 22.9769 2.61758 22.9777 3.18216Z" fill="#CF4E16"/>
<path d="M20.8457 5.4593C20.3954 5.45871 19.9555 5.32466 19.5814 5.07408C19.2073 4.82351 18.9159 4.46766 18.744 4.05152C18.5721 3.63537 18.5275 3.17761 18.6157 2.73609C18.7039 2.29456 18.921 1.8891 19.2395 1.57093C19.5581 1.25277 19.9639 1.03619 20.4055 0.948567C20.8472 0.860945 21.3049 0.906213 21.7208 1.07865C22.1367 1.25109 22.4922 1.54296 22.7422 1.91737C22.9923 2.29177 23.1258 2.73192 23.1258 3.18216C23.125 3.78637 22.8844 4.36556 22.4569 4.79252C22.0294 5.21948 21.4499 5.4593 20.8457 5.4593ZM20.8457 1.20386C20.4545 1.20445 20.0723 1.32098 19.7474 1.53872C19.4225 1.75646 19.1694 2.06563 19.0201 2.42717C18.8708 2.78871 18.8321 3.18638 18.9087 3.56994C18.9854 3.95349 19.1741 4.30571 19.4509 4.58209C19.7276 4.85846 20.0802 5.04658 20.4638 5.12267C20.8475 5.19876 21.2451 5.15941 21.6064 5.00959C21.9677 4.85977 22.2765 4.6062 22.4938 4.28094C22.711 3.95567 22.827 3.57331 22.827 3.18216C22.8262 2.65721 22.6171 2.15403 22.2456 1.78311C21.8741 1.4122 21.3706 1.20386 20.8457 1.20386Z" fill="#263238"/>
<path d="M53.9095 34.3299C53.8641 34.3301 53.8193 34.32 53.7784 34.3004C53.7374 34.2807 53.7016 34.252 53.6734 34.2163L52.9532 33.2989C52.9255 33.2685 52.9044 33.2327 52.8912 33.1938C52.8779 33.1549 52.8729 33.1136 52.8763 33.0727C52.8797 33.0317 52.8916 32.9919 52.9111 32.9557C52.9306 32.9195 52.9574 32.8877 52.9898 32.8624C53.0222 32.837 53.0594 32.8186 53.0992 32.8083C53.139 32.798 53.1805 32.796 53.2211 32.8025C53.2617 32.809 53.3006 32.8238 53.3352 32.8459C53.3698 32.8681 53.3995 32.8972 53.4224 32.9313L54.1456 33.8488C54.1941 33.9111 54.216 33.99 54.2065 34.0684C54.197 34.1468 54.1568 34.2183 54.0948 34.2671C54.0418 34.3083 53.9766 34.3304 53.9095 34.3299Z" fill="#263238"/>
<path d="M54.3895 32.1034C54.7023 30.7833 53.8857 29.4596 52.5656 29.1468C51.2455 28.834 49.9217 29.6506 49.609 30.9707C49.2962 32.2908 50.1128 33.6145 51.4329 33.9273C52.753 34.2401 54.0767 33.4235 54.3895 32.1034Z" fill="#CF4E16"/>
<path d="M52.0002 34.1327C51.4847 34.1333 50.9806 33.9809 50.5517 33.695C50.1227 33.409 49.7883 33.0022 49.5906 32.5261C49.3929 32.05 49.3409 31.526 49.4411 31.0203C49.5413 30.5146 49.7892 30.05 50.1535 29.6853C50.5179 29.3205 50.9822 29.072 51.4877 28.9712C51.9933 28.8705 52.5174 28.9219 52.9937 29.119C53.4701 29.3162 53.8772 29.6502 54.1637 30.0788C54.4502 30.5074 54.6031 31.0113 54.6031 31.5268C54.6023 32.2172 54.3279 32.8791 53.84 33.3675C53.3521 33.8559 52.6906 34.1311 52.0002 34.1327ZM52.0002 29.2198C51.5438 29.2192 51.0975 29.354 50.7177 29.6071C50.3379 29.8603 50.0417 30.2204 49.8667 30.6419C49.6916 31.0634 49.6455 31.5273 49.7342 31.9751C49.8228 32.4228 50.0423 32.8341 50.3649 33.1571C50.6874 33.48 51.0984 33.7 51.546 33.7893C51.9936 33.8785 52.4577 33.833 52.8794 33.6585C53.3011 33.484 53.6616 33.1883 53.9152 32.8088C54.1689 32.4294 54.3042 31.9832 54.3042 31.5268C54.3011 30.9175 54.057 30.3343 53.6254 29.9043C53.1937 29.4743 52.6095 29.2325 52.0002 29.2318V29.2198Z" fill="#263238"/>
<path d="M53.0705 30.8874C53.0705 31.1883 52.9812 31.4825 52.8139 31.7327C52.6467 31.9829 52.4089 32.1779 52.1308 32.2929C51.8527 32.408 51.5467 32.4379 51.2516 32.379C50.9564 32.32 50.6854 32.1749 50.4728 31.9619C50.2602 31.7488 50.1155 31.4775 50.0572 31.1823C49.9988 30.887 50.0294 30.5811 50.145 30.3032C50.2606 30.0253 50.456 29.7879 50.7065 29.6212C50.957 29.4544 51.2514 29.3657 51.5524 29.3663C51.7521 29.3659 51.9499 29.405 52.1345 29.4813C52.3191 29.5576 52.4867 29.6697 52.6278 29.8111C52.7689 29.9525 52.8806 30.1203 52.9566 30.305C53.0326 30.4897 53.0713 30.6876 53.0705 30.8874Z" fill="#CF4E16"/>
<path d="M51.5521 32.5578C51.2216 32.5584 50.8984 32.4609 50.6233 32.2777C50.3481 32.0945 50.1336 31.8338 50.0067 31.5286C49.8798 31.2234 49.8463 30.8875 49.9104 30.5632C49.9745 30.239 50.1334 29.9411 50.3669 29.7071C50.6004 29.4732 50.898 29.3138 51.2222 29.2491C51.5463 29.1844 51.8823 29.2173 52.1877 29.3437C52.4932 29.47 52.7542 29.6841 52.9379 29.9589C53.1216 30.2337 53.2197 30.5568 53.2197 30.8873C53.2189 31.3296 53.043 31.7536 52.7306 32.0666C52.4181 32.3796 51.9944 32.5562 51.5521 32.5578ZM51.5521 29.5156C51.2807 29.515 51.0152 29.595 50.7893 29.7453C50.5633 29.8957 50.387 30.1097 50.2828 30.3603C50.1785 30.6109 50.1509 30.8868 50.2035 31.1531C50.2561 31.4193 50.3865 31.664 50.5782 31.8561C50.7699 32.0483 51.0143 32.1792 51.2805 32.2324C51.5466 32.2855 51.8226 32.2586 52.0734 32.1548C52.3242 32.0511 52.5386 31.8753 52.6894 31.6497C52.8403 31.424 52.9208 31.1587 52.9208 30.8873C52.92 30.5243 52.7757 30.1763 52.5193 29.9193C52.2628 29.6623 51.9152 29.5172 51.5521 29.5156Z" fill="#263238"/>
<path d="M52.8945 29.8384C52.8951 30.2601 52.7705 30.6724 52.5366 31.0233C52.3027 31.3741 51.97 31.6477 51.5805 31.8093C51.1911 31.971 50.7624 32.0134 50.3488 31.9313C49.9352 31.8492 49.5553 31.6462 49.2571 31.348C48.959 31.0499 48.756 30.6699 48.6739 30.2563C48.5917 29.8428 48.6342 29.4141 48.7958 29.0246C48.9575 28.6352 49.231 28.3024 49.5819 28.0685C49.9327 27.8346 50.3451 27.7101 50.7667 27.7107C51.3311 27.7107 51.8723 27.9349 52.2713 28.3339C52.6703 28.7329 52.8945 29.2741 52.8945 29.8384Z" fill="#CF4E16"/>
<path d="M50.7659 32.1156C50.3155 32.1156 49.8753 31.982 49.5008 31.7318C49.1263 31.4816 48.8345 31.1259 48.6621 30.7098C48.4898 30.2937 48.4447 29.8359 48.5325 29.3942C48.6204 28.9524 48.8373 28.5467 49.1557 28.2282C49.4742 27.9098 49.8799 27.6929 50.3217 27.605C50.7634 27.5172 51.2212 27.5623 51.6373 27.7346C52.0534 27.907 52.4091 28.1988 52.6593 28.5733C52.9095 28.9478 53.043 29.388 53.043 29.8384C53.043 30.4424 52.8031 31.0215 52.3761 31.4486C51.949 31.8756 51.3698 32.1156 50.7659 32.1156ZM50.7659 27.8601C50.3746 27.8601 49.9922 27.9761 49.6668 28.1935C49.3415 28.4109 49.0879 28.7199 48.9382 29.0814C48.7885 29.4428 48.7493 29.8406 48.8256 30.2244C48.902 30.6081 49.0904 30.9606 49.367 31.2373C49.6437 31.514 49.9962 31.7024 50.38 31.7787C50.7637 31.855 51.1615 31.8159 51.523 31.6661C51.8845 31.5164 52.1934 31.2628 52.4108 30.9375C52.6282 30.6122 52.7442 30.2297 52.7442 29.8384C52.7442 29.3135 52.5359 28.81 52.165 28.4385C51.794 28.067 51.2909 27.8579 50.7659 27.8571V27.8601Z" fill="#263238"/>
<path d="M68.9267 6.13763L68.4516 12.0456C68.3802 12.9351 67.9732 13.7642 67.313 14.3646L66.025 15.5331C65.2288 16.2548 64.7408 17.2554 64.6623 18.3272L63.5656 33.4394C63.5156 34.1202 63.633 34.803 63.9075 35.428C64.182 36.0531 64.6053 36.6015 65.1405 37.0254C65.5895 37.3804 65.9448 37.8401 66.175 38.3642C66.4053 38.8883 66.5036 39.4608 66.4613 40.0317L61.1331 113.324L130.43 118.372L138.2 11.173L68.9267 6.13763Z" fill="#CF4E16"/>
<path d="M130.431 118.521L61.1214 113.483C61.0822 113.48 61.0458 113.461 61.0198 113.432C61.0068 113.417 60.9969 113.4 60.9908 113.382C60.9846 113.363 60.9823 113.344 60.9839 113.324L66.3152 40.0227C66.3545 39.4756 66.2596 38.9273 66.0388 38.4252C65.818 37.9232 65.4779 37.4826 65.0481 37.1419C64.4937 36.7036 64.0551 36.1361 63.7707 35.4891C63.4862 34.8421 63.3646 34.1352 63.4164 33.4304L64.5132 18.3182C64.5935 17.2075 65.0986 16.1704 65.9237 15.4225L67.2117 14.254C67.8445 13.6796 68.2345 12.8856 68.3024 12.0337L68.7776 6.12565C68.7791 6.10601 68.7845 6.08685 68.7934 6.0693C68.8023 6.05174 68.8147 6.03612 68.8297 6.02334C68.8447 6.01057 68.862 6.00089 68.8808 5.99485C68.8995 5.98882 68.9193 5.98655 68.9389 5.98819L138.221 11.0266C138.261 11.0296 138.297 11.0479 138.323 11.0774C138.35 11.1069 138.363 11.1455 138.362 11.185L130.565 118.384C130.562 118.419 130.547 118.452 130.523 118.477C130.498 118.502 130.466 118.518 130.431 118.521ZM61.2917 113.196L130.278 118.213L138.048 11.3135L69.0645 6.29599L68.6013 12.0576C68.5274 12.9868 68.0995 13.8523 67.4059 14.4751L66.1179 15.6436C65.3505 16.3377 64.8806 17.3011 64.806 18.3331L63.7093 33.4453C63.6603 34.1018 63.7731 34.7603 64.0378 35.3631C64.3024 35.9659 64.7109 36.4946 65.2274 36.9028C65.6956 37.2731 66.0659 37.7525 66.306 38.2989C66.5462 38.8454 66.6488 39.4423 66.605 40.0376L61.2917 113.196Z" fill="#263238"/>
<path d="M83.6076 8.3153L59.8268 8.48962L60.5628 108.893L84.3436 108.719L83.6076 8.3153Z" fill="white"/>
<path d="M60.5534 109.045C60.5138 109.045 60.4758 109.029 60.4477 109.001C60.4197 108.973 60.404 108.935 60.404 108.896L59.6748 8.4865C59.6756 8.44711 59.6916 8.40955 59.7194 8.38169C59.7473 8.35384 59.7848 8.33785 59.8242 8.33708L83.6056 8.16376C83.6441 8.16827 83.6804 8.18384 83.7102 8.20858C83.7381 8.23635 83.7542 8.27383 83.7551 8.31318L84.4842 108.722C84.4835 108.762 84.4675 108.799 84.4396 108.827C84.4118 108.855 84.3742 108.871 84.3348 108.872L60.5564 109.045H60.5534ZM59.9766 8.63592L60.7028 108.746L84.1824 108.576L83.4562 8.46558L59.9766 8.63592Z" fill="#263238"/>
<path d="M88.6018 9.63842L64.821 9.81274L65.5571 110.216L89.3378 110.042L88.6018 9.63842Z" fill="white"/>
<path d="M65.5468 110.369C65.5273 110.369 65.508 110.366 65.4898 110.359C65.4717 110.351 65.4552 110.341 65.4413 110.327C65.4274 110.313 65.4163 110.297 65.4088 110.279C65.4013 110.261 65.3974 110.242 65.3974 110.222L64.6682 9.81334C64.668 9.77436 64.683 9.73682 64.7101 9.70875C64.724 9.69431 64.7407 9.68288 64.7592 9.67517C64.7777 9.66746 64.7976 9.66364 64.8176 9.66393L88.5961 9.4906C88.6357 9.4906 88.6737 9.50634 88.7017 9.53436C88.7297 9.56239 88.7455 9.60039 88.7455 9.64002L89.4896 110.037C89.49 110.077 89.475 110.116 89.4478 110.145C89.4189 110.173 89.3804 110.189 89.3402 110.19L65.5617 110.36L65.5468 110.369ZM64.9671 9.95977L65.6932 110.07L89.1758 109.9L88.4496 9.78944L64.9671 9.95977Z" fill="#263238"/>
<path d="M70.2475 6.23328L69.7664 12.1413C69.6951 13.0308 69.288 13.8598 68.6278 14.4603L67.3398 15.6287C66.5449 16.3527 66.0573 17.3536 65.9771 18.4258L64.8864 33.535C64.8364 34.2159 64.9538 34.8986 65.2283 35.5237C65.5028 36.1488 65.9261 36.6972 66.4613 37.121C66.9101 37.4764 67.2653 37.9361 67.496 38.46C67.7268 38.9839 67.826 39.5563 67.7851 40.1273L62.4539 113.429L131.736 118.467L139.533 11.2717L70.2475 6.23328Z" fill="#CF4E16"/>
<path d="M131.736 118.617L62.4418 113.578C62.4026 113.575 62.3662 113.557 62.3401 113.528C62.3151 113.498 62.3023 113.459 62.3043 113.42L67.6355 40.1094C67.6752 39.5627 67.5804 39.0147 67.3595 38.5131C67.1387 38.0114 66.7984 37.5715 66.3685 37.2316C65.8166 36.7943 65.3797 36.2292 65.0954 35.5851C64.8111 34.941 64.688 34.2373 64.7368 33.535L65.8365 18.4228C65.9149 17.3122 66.4191 16.2748 67.2441 15.5271L68.532 14.3586C69.1654 13.7859 69.5557 12.9925 69.6228 12.1413L70.0979 6.23026C70.0995 6.21062 70.1048 6.19147 70.1138 6.17391C70.1227 6.15635 70.135 6.14074 70.15 6.12796C70.165 6.11518 70.1824 6.1055 70.2012 6.09947C70.2199 6.09343 70.2397 6.09117 70.2593 6.0928L139.542 11.1222C139.561 11.1234 139.58 11.1284 139.598 11.137C139.616 11.1455 139.632 11.1575 139.645 11.1723C139.658 11.187 139.668 11.2041 139.674 11.2227C139.681 11.2413 139.683 11.261 139.682 11.2806L131.885 118.479C131.882 118.517 131.865 118.552 131.838 118.577C131.81 118.603 131.774 118.617 131.736 118.617ZM62.6151 113.292L131.599 118.309L139.368 11.4091L70.3848 6.39164L69.9216 12.1562C69.847 13.0844 69.4192 13.9486 68.7263 14.5708L67.4383 15.7392C66.6731 16.435 66.2037 17.3975 66.1264 18.4288L65.0357 33.535C64.9867 34.1915 65.0994 34.85 65.3641 35.4528C65.6288 36.0556 66.0373 36.5843 66.5537 36.9925C67.0219 37.3628 67.3922 37.8421 67.6324 38.3886C67.8725 38.9351 67.9752 39.532 67.9314 40.1273L62.6151 113.292Z" fill="#263238"/>
<path d="M134.629 27.2385H71.0604V118.348H134.629V27.2385Z" fill="white"/>
<path d="M134.629 119.095H71.0604C70.8623 119.095 70.6723 119.016 70.5322 118.876C70.3921 118.736 70.3134 118.546 70.3134 118.348V27.2385C70.3134 27.0404 70.3921 26.8504 70.5322 26.7103C70.6723 26.5702 70.8623 26.4915 71.0604 26.4915H134.629C134.827 26.4915 135.017 26.5702 135.157 26.7103C135.297 26.8504 135.376 27.0404 135.376 27.2385V118.348C135.376 118.546 135.297 118.736 135.157 118.876C135.017 119.016 134.827 119.095 134.629 119.095ZM71.8075 117.601H133.882V27.9856H71.8075V117.601Z" fill="#263238"/>
<path d="M134.629 26.7454H71.7361V118.856H134.629V26.7454Z" fill="white"/>
<path d="M134.629 119.002H71.7354C71.6957 119.002 71.6577 118.987 71.6297 118.959C71.6017 118.931 71.5859 118.893 71.5859 118.853V26.7454C71.5859 26.7058 71.6017 26.6678 71.6297 26.6398C71.6577 26.6118 71.6957 26.596 71.7354 26.596H134.629C134.668 26.596 134.706 26.6118 134.734 26.6398C134.762 26.6678 134.778 26.7058 134.778 26.7454V118.856C134.777 118.895 134.761 118.932 134.733 118.96C134.705 118.987 134.668 119.002 134.629 119.002ZM71.8728 118.703H134.479V26.8948H71.8848L71.8728 118.703Z" fill="#263238"/>
<path d="M132.726 31.6762C132.686 31.6762 132.648 31.6605 132.62 31.6325C132.592 31.6045 132.577 31.5664 132.577 31.5268V27.0652C132.577 27.0256 132.592 26.9876 132.62 26.9595C132.648 26.9315 132.686 26.9158 132.726 26.9158C132.765 26.9165 132.803 26.9325 132.831 26.9604C132.859 26.9882 132.875 27.0258 132.875 27.0652V31.5268C132.875 31.5662 132.859 31.6038 132.831 31.6316C132.803 31.6595 132.765 31.6755 132.726 31.6762Z" fill="#263238"/>
<path d="M133.398 49.9711C133.358 49.9711 133.32 49.9553 133.292 49.9273C133.264 49.8993 133.249 49.8613 133.249 49.8216V29.6801C133.249 29.6407 133.265 29.6031 133.293 29.5752C133.321 29.5474 133.359 29.5314 133.398 29.5306C133.438 29.5306 133.476 29.5464 133.504 29.5744C133.532 29.6024 133.547 29.6404 133.547 29.6801V49.8246C133.547 49.8637 133.531 49.901 133.503 49.9284C133.475 49.9557 133.437 49.9711 133.398 49.9711Z" fill="#263238"/>
<path d="M132.719 55.0513C132.679 55.0513 132.641 55.0355 132.613 55.0075C132.585 54.9795 132.57 54.9415 132.57 54.9018V35.6777C132.57 35.638 132.585 35.6 132.613 35.572C132.641 35.544 132.679 35.5283 132.719 35.5283C132.759 35.5283 132.797 35.544 132.825 35.572C132.853 35.6 132.869 35.638 132.869 35.6777V54.8989C132.869 54.9187 132.865 54.9385 132.858 54.957C132.851 54.9754 132.84 54.9923 132.826 55.0064C132.812 55.0206 132.795 55.0319 132.777 55.0396C132.759 55.0473 132.739 55.0513 132.719 55.0513Z" fill="#263238"/>
<path d="M133.398 97.7849C133.358 97.7849 133.32 97.7692 133.292 97.7412C133.264 97.7132 133.249 97.6751 133.249 97.6355V62.588C133.249 62.5486 133.265 62.511 133.293 62.4832C133.321 62.4553 133.359 62.4393 133.398 62.4385C133.438 62.4385 133.476 62.4543 133.504 62.4823C133.532 62.5103 133.547 62.5483 133.547 62.588V97.6475C133.544 97.685 133.527 97.72 133.5 97.7455C133.472 97.771 133.436 97.7851 133.398 97.7849Z" fill="#263238"/>
<path d="M132.618 101.183C132.578 101.183 132.54 101.167 132.512 101.139C132.484 101.111 132.468 101.073 132.468 101.033V91.5093C132.468 91.4697 132.484 91.4317 132.512 91.4036C132.54 91.3756 132.578 91.3599 132.618 91.3599C132.657 91.3599 132.695 91.3756 132.723 91.4036C132.751 91.4317 132.767 91.4697 132.767 91.5093V101.045C132.764 101.083 132.747 101.118 132.719 101.143C132.691 101.169 132.655 101.183 132.618 101.183Z" fill="#263238"/>
<path d="M132.024 26.7454H69.1306V118.856H132.024V26.7454Z" fill="white"/>
<path d="M132.026 119.002H69.1299C69.0903 119.002 69.0523 118.987 69.0242 118.959C68.9962 118.931 68.9805 118.893 68.9805 118.853V26.7454C68.9805 26.7058 68.9962 26.6678 69.0242 26.6398C69.0523 26.6118 69.0903 26.596 69.1299 26.596H132.026C132.066 26.596 132.104 26.6118 132.132 26.6398C132.16 26.6678 132.175 26.7058 132.175 26.7454V118.856C132.175 118.895 132.159 118.932 132.131 118.96C132.103 118.987 132.065 119.002 132.026 119.002ZM69.2703 118.703H131.877V26.8948H69.2793L69.2703 118.703Z" fill="#263238"/>
<path d="M79.772 31.0188C80.4537 31.0188 81.0062 30.4662 81.0062 29.7846C81.0062 29.103 80.4537 28.5504 79.772 28.5504C79.0904 28.5504 78.5378 29.103 78.5378 29.7846C78.5378 30.4662 79.0904 31.0188 79.772 31.0188Z" fill="white"/>
<path d="M79.7718 31.1712C79.4974 31.1718 79.229 31.091 79.0006 30.939C78.7722 30.787 78.594 30.5706 78.4886 30.3173C78.3832 30.064 78.3553 29.7851 78.4085 29.5159C78.4616 29.2468 78.5935 28.9994 78.7873 28.8052C78.9811 28.611 79.2281 28.4786 79.4972 28.4249C79.7662 28.3711 80.0452 28.3984 80.2987 28.5033C80.5523 28.6081 80.769 28.7859 80.9215 29.0139C81.074 29.242 81.1554 29.5102 81.1554 29.7846C81.1558 29.9666 81.1203 30.1468 81.0509 30.315C80.9816 30.4832 80.8797 30.6361 80.7512 30.7649C80.6227 30.8937 80.47 30.9959 80.302 31.0656C80.1339 31.1353 79.9537 31.1712 79.7718 31.1712ZM79.7718 28.6998C79.5564 28.6992 79.3457 28.7626 79.1663 28.8819C78.987 29.0012 78.8471 29.1711 78.7644 29.3699C78.6817 29.5688 78.6599 29.7878 78.7018 29.9991C78.7437 30.2104 78.8473 30.4045 78.9996 30.5568C79.152 30.7091 79.346 30.8127 79.5573 30.8546C79.7686 30.8965 79.9876 30.8747 80.1865 30.792C80.3853 30.7093 80.5552 30.5694 80.6745 30.3901C80.7938 30.2107 80.8572 30 80.8566 29.7846C80.8558 29.4972 80.7412 29.2217 80.538 29.0184C80.3347 28.8152 80.0593 28.7006 79.7718 28.6998Z" fill="#263238"/>
<path d="M90.5983 31.0188C91.28 31.0188 91.8325 30.4662 91.8325 29.7846C91.8325 29.103 91.28 28.5504 90.5983 28.5504C89.9167 28.5504 89.3641 29.103 89.3641 29.7846C89.3641 30.4662 89.9167 31.0188 90.5983 31.0188Z" fill="white"/>
<path d="M90.5991 31.1712C90.3247 31.1718 90.0563 31.091 89.8279 30.939C89.5995 30.787 89.4213 30.5706 89.3159 30.3173C89.2105 30.064 89.1826 29.7851 89.2358 29.5159C89.2889 29.2468 89.4207 28.9994 89.6145 28.8052C89.8083 28.611 90.0554 28.4786 90.3245 28.4249C90.5935 28.3711 90.8725 28.3984 91.126 28.5033C91.3796 28.6081 91.5963 28.7859 91.7488 29.0139C91.9013 29.242 91.9827 29.5102 91.9827 29.7846C91.9831 29.9666 91.9476 30.1468 91.8782 30.315C91.8089 30.4832 91.707 30.6361 91.5785 30.7649C91.45 30.8937 91.2973 30.9959 91.1292 31.0656C90.9612 31.1353 90.781 31.1712 90.5991 31.1712ZM90.5991 28.6998C90.3837 28.6992 90.1729 28.7626 89.9936 28.8819C89.8143 29.0012 89.6744 29.1711 89.5917 29.3699C89.509 29.5688 89.4872 29.7878 89.5291 29.9991C89.5709 30.2104 89.6746 30.4045 89.8269 30.5568C89.9792 30.7091 90.1733 30.8127 90.3846 30.8546C90.5959 30.8965 90.8148 30.8747 91.0137 30.792C91.2126 30.7093 91.3825 30.5694 91.5018 30.3901C91.6211 30.2107 91.6844 30 91.6838 29.7846C91.683 29.4972 91.5685 29.2217 91.3652 29.0184C91.162 28.8152 90.8865 28.7006 90.5991 28.6998Z" fill="#263238"/>
<path d="M101.425 31.0188C102.107 31.0188 102.659 30.4662 102.659 29.7846C102.659 29.103 102.107 28.5504 101.425 28.5504C100.743 28.5504 100.191 29.103 100.191 29.7846C100.191 30.4662 100.743 31.0188 101.425 31.0188Z" fill="white"/>
<path d="M101.425 31.1712C101.151 31.1718 100.882 31.091 100.654 30.939C100.425 30.787 100.247 30.5706 100.142 30.3173C100.036 30.064 100.009 29.7851 100.062 29.5159C100.115 29.2468 100.247 28.9994 100.44 28.8052C100.634 28.611 100.881 28.4786 101.15 28.4249C101.419 28.3711 101.698 28.3984 101.952 28.5033C102.205 28.6081 102.422 28.7859 102.575 29.0139C102.727 29.242 102.809 29.5102 102.809 29.7846C102.809 30.1518 102.663 30.5041 102.404 30.764C102.144 31.024 101.792 31.1704 101.425 31.1712ZM101.425 28.6998C101.21 28.6992 100.999 28.7626 100.82 28.8819C100.64 29.0012 100.5 29.1711 100.418 29.3699C100.335 29.5688 100.313 29.7878 100.355 29.9991C100.397 30.2104 100.501 30.4045 100.653 30.5568C100.805 30.7091 100.999 30.8127 101.211 30.8546C101.422 30.8965 101.641 30.8747 101.84 30.792C102.039 30.7093 102.208 30.5694 102.328 30.3901C102.447 30.2107 102.51 30 102.51 29.7846C102.509 29.4972 102.394 29.2217 102.191 29.0184C101.988 28.8152 101.712 28.7006 101.425 28.6998Z" fill="#263238"/>
<path d="M112.252 31.0188C112.934 31.0188 113.487 30.4662 113.487 29.7846C113.487 29.103 112.934 28.5504 112.252 28.5504C111.571 28.5504 111.018 29.103 111.018 29.7846C111.018 30.4662 111.571 31.0188 112.252 31.0188Z" fill="white"/>
<path d="M112.252 31.1712C111.978 31.1718 111.71 31.091 111.481 30.939C111.253 30.787 111.074 30.5706 110.969 30.3173C110.864 30.064 110.836 29.7851 110.889 29.5159C110.942 29.2468 111.074 28.9994 111.268 28.8052C111.462 28.611 111.709 28.4786 111.978 28.4249C112.247 28.3711 112.526 28.3984 112.779 28.5033C113.033 28.6081 113.249 28.7859 113.402 29.0139C113.554 29.242 113.636 29.5102 113.636 29.7846C113.636 29.9666 113.601 30.1468 113.531 30.315C113.462 30.4832 113.36 30.6361 113.232 30.7649C113.103 30.8937 112.95 30.9959 112.782 31.0656C112.614 31.1353 112.434 31.1712 112.252 31.1712ZM112.252 28.6998C112.037 28.6992 111.826 28.7626 111.647 28.8819C111.467 29.0012 111.328 29.1711 111.245 29.3699C111.162 29.5688 111.14 29.7878 111.182 29.9991C111.224 30.2104 111.328 30.4045 111.48 30.5568C111.632 30.7091 111.827 30.8127 112.038 30.8546C112.249 30.8965 112.468 30.8747 112.667 30.792C112.866 30.7093 113.036 30.5694 113.155 30.3901C113.274 30.2107 113.338 30 113.337 29.7846C113.336 29.4972 113.222 29.2217 113.018 29.0184C112.815 28.8152 112.54 28.7006 112.252 28.6998Z" fill="#263238"/>
<path d="M123.079 31.0188C123.76 31.0188 124.313 30.4662 124.313 29.7846C124.313 29.103 123.76 28.5504 123.079 28.5504C122.397 28.5504 121.845 29.103 121.845 29.7846C121.845 30.4662 122.397 31.0188 123.079 31.0188Z" fill="white"/>
<path d="M123.079 31.1712C122.805 31.1718 122.536 31.091 122.308 30.939C122.079 30.787 121.901 30.5706 121.796 30.3173C121.69 30.064 121.663 29.7851 121.716 29.5159C121.769 29.2468 121.901 28.9994 122.095 28.8052C122.288 28.611 122.535 28.4786 122.804 28.4249C123.073 28.3711 123.352 28.3984 123.606 28.5033C123.86 28.6081 124.076 28.7859 124.229 29.0139C124.381 29.242 124.463 29.5102 124.463 29.7846C124.463 30.1518 124.317 30.5041 124.058 30.764C123.798 31.024 123.446 31.1704 123.079 31.1712ZM123.079 28.6998C122.864 28.6992 122.653 28.7626 122.474 28.8819C122.294 29.0012 122.154 29.1711 122.072 29.3699C121.989 29.5688 121.967 29.7878 122.009 29.9991C122.051 30.2104 122.155 30.4045 122.307 30.5568C122.459 30.7091 122.653 30.8127 122.865 30.8546C123.076 30.8965 123.295 30.8747 123.494 30.792C123.693 30.7093 123.862 30.5694 123.982 30.3901C124.101 30.2107 124.164 30 124.164 29.7846C124.163 29.4972 124.048 29.2217 123.845 29.0184C123.642 28.8152 123.366 28.7006 123.079 28.6998Z" fill="#263238"/>
<path d="M78.8304 22.6574C79.6842 22.6574 80.5032 22.9964 81.1072 23.5999C81.7113 24.2034 82.051 25.022 82.0518 25.8758C82.0525 26.0937 82.0304 26.311 81.9861 26.5243C81.9727 26.5892 81.9779 26.6565 82.001 26.7186H82.6973C82.6973 26.7036 82.6973 26.6887 82.6973 26.6737C82.862 25.8734 82.775 25.0417 82.4483 24.2928C82.1216 23.5438 81.5712 22.9143 80.8726 22.4905C80.174 22.0667 79.3614 21.8694 78.5463 21.9257C77.7311 21.9819 76.9533 22.289 76.3196 22.8048C75.6858 23.3206 75.2272 24.0198 75.0065 24.8065C74.7858 25.5932 74.814 26.429 75.087 27.1991C75.3601 27.9692 75.8647 28.636 76.5317 29.108C77.1987 29.58 77.9953 29.8341 78.8124 29.8354C78.8637 29.84 78.9154 29.8339 78.9641 29.8175C79.0129 29.801 79.0577 29.7746 79.0957 29.7399C79.1337 29.7052 79.164 29.6629 79.1848 29.6158C79.2055 29.5687 79.2162 29.5178 79.2162 29.4664C79.2162 29.4149 79.2055 29.364 79.1848 29.3169C79.164 29.2698 79.1337 29.2276 79.0957 29.1928C79.0577 29.1581 79.0129 29.1317 78.9641 29.1152C78.9154 29.0988 78.8637 29.0927 78.8124 29.0973C77.9754 29.0718 77.1813 28.7214 76.5982 28.1203C76.0152 27.5192 75.6891 26.7147 75.6891 25.8773C75.6891 25.0399 76.0152 24.2355 76.5982 23.6344C77.1813 23.0333 77.9754 22.6829 78.8124 22.6574H78.8304Z" fill="#263238"/>
<path d="M80.3003 29.0973C79.6628 29.0991 79.039 28.9116 78.5081 28.5588C77.9772 28.2059 77.5629 27.7034 77.3177 27.1149C77.0725 26.5264 77.0074 25.8784 77.1307 25.2529C77.254 24.6274 77.5601 24.0525 78.0102 23.6011C78.4604 23.1497 79.0344 22.842 79.6595 22.717C80.2847 22.5919 80.9329 22.6552 81.522 22.8988C82.1112 23.1423 82.6149 23.5552 82.9692 24.0852C83.3236 24.6151 83.5128 25.2383 83.5128 25.8758C83.5133 26.0947 83.4912 26.313 83.447 26.5273C83.4354 26.5913 83.4406 26.6572 83.462 26.7186H84.1583C84.1583 26.7036 84.1583 26.6887 84.1583 26.6737C84.3229 25.8734 84.2359 25.0417 83.9092 24.2928C83.5826 23.5438 83.0322 22.9143 82.3336 22.4905C81.635 22.0667 80.8224 21.8694 80.0072 21.9257C79.1921 21.9819 78.4143 22.289 77.7805 22.8048C77.1468 23.3206 76.6881 24.0198 76.4674 24.8065C76.2468 25.5932 76.2749 26.429 76.548 27.1991C76.821 27.9692 77.3256 28.636 77.9926 29.108C78.6596 29.58 79.4563 29.8341 80.2734 29.8354C80.3246 29.84 80.3763 29.8339 80.4251 29.8175C80.4738 29.801 80.5186 29.7746 80.5566 29.7399C80.5946 29.7052 80.625 29.6629 80.6457 29.6158C80.6665 29.5687 80.6772 29.5178 80.6772 29.4664C80.6772 29.4149 80.6665 29.364 80.6457 29.3169C80.625 29.2698 80.5946 29.2276 80.5566 29.1928C80.5186 29.1581 80.4738 29.1317 80.4251 29.1152C80.3763 29.0988 80.3246 29.0927 80.2734 29.0973H80.3003Z" fill="#263238"/>
<path d="M89.5586 22.6573C90.038 22.6573 90.5113 22.7642 90.9441 22.9703C91.3769 23.1765 91.7582 23.4766 92.0603 23.8488C92.3624 24.221 92.5776 24.656 92.6902 25.1219C92.8028 25.5879 92.81 26.0731 92.7113 26.5422C92.6997 26.6062 92.7048 26.6721 92.7263 26.7335H93.4225C93.4238 26.7185 93.4238 26.7035 93.4225 26.6886C93.5872 25.8883 93.5002 25.0566 93.1735 24.3077C92.8468 23.5587 92.2965 22.9292 91.5979 22.5054C90.8993 22.0816 90.0867 21.8843 89.2715 21.9406C88.4563 21.9968 87.6785 22.3039 87.0448 22.8197C86.4111 23.3354 85.9524 24.0346 85.7317 24.8214C85.5111 25.6081 85.5392 26.4439 85.8122 27.214C86.0853 27.9841 86.5899 28.6509 87.2569 29.1229C87.9239 29.5949 88.7206 29.849 89.5377 29.8503C89.6298 29.842 89.7155 29.7995 89.7779 29.7313C89.8404 29.663 89.875 29.5738 89.875 29.4813C89.875 29.3887 89.8404 29.2996 89.7779 29.2313C89.7155 29.163 89.6298 29.1205 89.5377 29.1122C89.1066 29.1253 88.6772 29.0518 88.2751 28.8959C87.8729 28.7399 87.5062 28.5049 87.1966 28.2046C86.887 27.9043 86.6409 27.5449 86.4728 27.1477C86.3047 26.7504 86.2181 26.3235 86.2181 25.8922C86.2181 25.4609 86.3047 25.034 86.4728 24.6368C86.6409 24.2396 86.887 23.8802 87.1966 23.5799C87.5062 23.2796 87.8729 23.0445 88.2751 22.8886C88.6772 22.7327 89.1066 22.6591 89.5377 22.6723L89.5586 22.6573Z" fill="#263238"/>
<path d="M91.0292 29.0973C90.392 29.0979 89.7688 28.9095 89.2387 28.5558C88.7085 28.2022 88.2951 27.6993 88.0509 27.1107C87.8066 26.5221 87.7424 25.8743 87.8663 25.2492C87.9903 24.6241 88.2969 24.0498 88.7473 23.599C89.1977 23.1482 89.7717 22.841 90.3967 22.7165C91.0217 22.592 91.6695 22.6556 92.2584 22.8993C92.8472 23.1431 93.3505 23.556 93.7046 24.0858C94.0587 24.6156 94.2477 25.2386 94.2477 25.8758C94.2483 26.0937 94.2263 26.311 94.182 26.5243C94.1702 26.5893 94.1754 26.6562 94.1969 26.7186H94.8932C94.8995 26.7041 94.9045 26.6891 94.9081 26.6737C95.0728 25.8734 94.9858 25.0417 94.6591 24.2928C94.3324 23.5438 93.7821 22.9143 93.0835 22.4905C92.3849 22.0667 91.5723 21.8694 90.7571 21.9257C89.9419 21.9819 89.1641 22.289 88.5304 22.8048C87.8967 23.3206 87.438 24.0198 87.2173 24.8065C86.9967 25.5932 87.0248 26.429 87.2978 27.1991C87.5709 27.9692 88.0755 28.636 88.7425 29.108C89.4095 29.58 90.2062 29.8341 91.0233 29.8354C91.1154 29.8271 91.2011 29.7847 91.2635 29.7164C91.326 29.6481 91.3606 29.5589 91.3606 29.4664C91.3606 29.3738 91.326 29.2847 91.2635 29.2164C91.2011 29.1481 91.1154 29.1056 91.0233 29.0973H91.0292Z" fill="#263238"/>
<path d="M100.284 29.0973C99.6466 29.0973 99.0238 28.9084 98.494 28.5544C97.9643 28.2004 97.5514 27.6973 97.3075 27.1086C97.0637 26.52 96.9999 25.8723 97.1242 25.2474C97.2485 24.6225 97.5553 24.0485 98.0058 23.5979C98.4564 23.1474 99.0304 22.8406 99.6553 22.7163C100.28 22.592 100.928 22.6558 101.517 22.8996C102.105 23.1434 102.608 23.5563 102.962 24.0861C103.316 24.6159 103.505 25.2387 103.505 25.8758C103.504 26.0946 103.482 26.3128 103.439 26.5273C103.421 26.6146 103.437 26.7058 103.484 26.7813H104.133C104.153 26.7481 104.167 26.7117 104.175 26.6737C104.339 25.8734 104.252 25.0417 103.926 24.2928C103.599 23.5438 103.049 22.9143 102.35 22.4905C101.651 22.0667 100.839 21.8694 100.024 21.9257C99.2084 21.9819 98.4306 22.289 97.7969 22.8048C97.1631 23.3206 96.7045 24.0198 96.4838 24.8065C96.2631 25.5932 96.2913 26.429 96.5643 27.1991C96.8374 27.9692 97.342 28.636 98.009 29.108C98.676 29.58 99.4727 29.8341 100.29 29.8354C100.341 29.84 100.393 29.8339 100.441 29.8175C100.49 29.801 100.535 29.7746 100.573 29.7399C100.611 29.7052 100.641 29.6629 100.662 29.6158C100.683 29.5687 100.694 29.5178 100.694 29.4664C100.694 29.4149 100.683 29.364 100.662 29.3169C100.641 29.2698 100.611 29.2276 100.573 29.1928C100.535 29.1581 100.49 29.1317 100.441 29.1152C100.393 29.0988 100.341 29.0927 100.29 29.0973H100.284Z" fill="#263238"/>
<path d="M101.742 29.0974C101.105 29.0974 100.482 28.9084 99.9525 28.5544C99.4227 28.2005 99.0098 27.6973 98.766 27.1087C98.5222 26.52 98.4584 25.8723 98.5827 25.2474C98.707 24.6225 99.0138 24.0485 99.4643 23.598C99.9149 23.1474 100.489 22.8406 101.114 22.7163C101.739 22.592 102.386 22.6558 102.975 22.8997C103.564 23.1435 104.067 23.5564 104.421 24.0861C104.775 24.6159 104.964 25.2387 104.964 25.8759C104.963 26.0937 104.941 26.3108 104.898 26.5244C104.879 26.6126 104.895 26.7048 104.943 26.7814H105.579C105.603 26.745 105.619 26.7044 105.627 26.6618C105.792 25.8615 105.705 25.0298 105.378 24.2809C105.051 23.5319 104.501 22.9024 103.802 22.4786C103.104 22.0548 102.291 21.8575 101.476 21.9138C100.661 21.97 99.8831 22.2771 99.2494 22.7929C98.6157 23.3086 98.157 24.0078 97.9363 24.7946C97.7156 25.5813 97.7438 26.4171 98.0168 27.1872C98.2899 27.9573 98.7945 28.6241 99.4615 29.0961C100.128 29.5681 100.925 29.8222 101.742 29.8235C101.794 29.8281 101.845 29.822 101.894 29.8056C101.943 29.7891 101.988 29.7627 102.025 29.728C102.063 29.6933 102.094 29.651 102.115 29.6039C102.135 29.5568 102.146 29.5059 102.146 29.4545C102.146 29.403 102.135 29.3521 102.115 29.305C102.094 29.2579 102.063 29.2157 102.025 29.1809C101.988 29.1462 101.943 29.1198 101.894 29.1033C101.845 29.0869 101.794 29.0808 101.742 29.0854V29.0974Z" fill="#263238"/>
<path d="M111.006 29.0974C110.369 29.0974 109.746 28.9084 109.217 28.5544C108.687 28.2005 108.274 27.6973 108.03 27.1087C107.786 26.52 107.723 25.8723 107.847 25.2474C107.971 24.6225 108.278 24.0485 108.728 23.598C109.179 23.1474 109.753 22.8406 110.378 22.7163C111.003 22.592 111.651 22.6558 112.239 22.8997C112.828 23.1435 113.331 23.5564 113.685 24.0861C114.039 24.6159 114.228 25.2387 114.228 25.8759C114.229 26.0937 114.206 26.3111 114.162 26.5244C114.145 26.6136 114.161 26.7061 114.207 26.7844H114.843C114.868 26.7472 114.884 26.7055 114.891 26.6618C115.056 25.8615 114.969 25.0298 114.642 24.2809C114.316 23.5319 113.765 22.9024 113.067 22.4786C112.368 22.0548 111.555 21.8575 110.74 21.9138C109.925 21.97 109.147 22.2771 108.514 22.7929C107.88 23.3086 107.421 24.0078 107.2 24.7946C106.98 25.5813 107.008 26.4171 107.281 27.1872C107.554 27.9573 108.059 28.6241 108.726 29.0961C109.393 29.5681 110.189 29.8222 111.006 29.8235C111.058 29.8281 111.109 29.822 111.158 29.8056C111.207 29.7891 111.252 29.7627 111.29 29.728C111.328 29.6933 111.358 29.651 111.379 29.6039C111.399 29.5568 111.41 29.5059 111.41 29.4545C111.41 29.403 111.399 29.3521 111.379 29.305C111.358 29.2579 111.328 29.2157 111.29 29.1809C111.252 29.1462 111.207 29.1198 111.158 29.1033C111.109 29.0869 111.058 29.0808 111.006 29.0854V29.0974Z" fill="#263238"/>
<path d="M112.479 29.0973C111.842 29.0973 111.219 28.9084 110.689 28.5544C110.16 28.2004 109.747 27.6973 109.503 27.1086C109.259 26.52 109.195 25.8723 109.32 25.2474C109.444 24.6225 109.751 24.0485 110.201 23.5979C110.652 23.1474 111.226 22.8406 111.851 22.7163C112.476 22.592 113.123 22.6558 113.712 22.8996C114.301 23.1434 114.804 23.5563 115.158 24.0861C115.512 24.6159 115.701 25.2387 115.701 25.8758C115.701 26.0937 115.679 26.311 115.635 26.5243C115.617 26.6135 115.633 26.7061 115.68 26.7843H116.316C116.337 26.7503 116.351 26.7128 116.358 26.6737C116.523 25.8734 116.436 25.0417 116.109 24.2928C115.782 23.5438 115.232 22.9143 114.533 22.4905C113.835 22.0667 113.022 21.8694 112.207 21.9257C111.392 21.9819 110.614 22.289 109.98 22.8048C109.347 23.3206 108.888 24.0198 108.667 24.8065C108.447 25.5932 108.475 26.429 108.748 27.1991C109.021 27.9692 109.525 28.636 110.192 29.108C110.859 29.58 111.656 29.8341 112.473 29.8354C112.524 29.84 112.576 29.8339 112.625 29.8175C112.674 29.801 112.718 29.7746 112.756 29.7399C112.794 29.7052 112.825 29.6629 112.846 29.6158C112.866 29.5687 112.877 29.5178 112.877 29.4664C112.877 29.4149 112.866 29.364 112.846 29.3169C112.825 29.2698 112.794 29.2276 112.756 29.1928C112.718 29.1581 112.674 29.1317 112.625 29.1152C112.576 29.0988 112.524 29.0927 112.473 29.0973H112.479Z" fill="#263238"/>
<path d="M121.738 29.0973C121.101 29.0979 120.478 28.9095 119.948 28.5558C119.417 28.2022 119.004 27.6993 118.76 27.1107C118.515 26.5221 118.451 25.8743 118.575 25.2492C118.699 24.6241 119.006 24.0498 119.456 23.599C119.907 23.1482 120.481 22.8411 121.106 22.7165C121.731 22.592 122.378 22.6556 122.967 22.8993C123.556 23.1431 124.059 23.556 124.413 24.0858C124.768 24.6156 124.957 25.2386 124.957 25.8758C124.957 26.0937 124.935 26.3111 124.891 26.5243C124.877 26.5813 124.877 26.6407 124.891 26.6976H125.599V26.6737C125.651 26.411 125.679 26.1438 125.68 25.8758C125.68 25.0927 125.448 24.3272 125.012 23.676C124.577 23.0249 123.959 22.5174 123.235 22.2177C122.512 21.918 121.716 21.8396 120.948 21.9923C120.18 22.1451 119.474 22.5222 118.92 23.076C118.367 23.6298 117.989 24.3353 117.837 25.1034C117.684 25.8715 117.762 26.6676 118.062 27.3911C118.362 28.1146 118.869 28.733 119.52 29.1681C120.172 29.6032 120.937 29.8354 121.72 29.8354C121.812 29.8271 121.898 29.7847 121.96 29.7164C122.023 29.6481 122.058 29.5589 122.058 29.4664C122.058 29.3738 122.023 29.2847 121.96 29.2164C121.898 29.1481 121.812 29.1056 121.72 29.0973H121.738Z" fill="#263238"/>
<path d="M123.207 29.0973C122.569 29.0979 121.946 28.9095 121.416 28.5558C120.886 28.2022 120.473 27.6993 120.228 27.1107C119.984 26.5221 119.92 25.8743 120.044 25.2492C120.168 24.6241 120.474 24.0498 120.925 23.599C121.375 23.1482 121.949 22.841 122.574 22.7165C123.199 22.592 123.847 22.6556 124.436 22.8993C125.025 23.1431 125.528 23.556 125.882 24.0858C126.236 24.6156 126.425 25.2386 126.425 25.8758C126.426 26.0937 126.404 26.311 126.359 26.5243C126.346 26.5813 126.346 26.6407 126.359 26.6976H127.068V26.6737C127.232 25.8734 127.145 25.0417 126.819 24.2928C126.492 23.5438 125.941 22.9143 125.243 22.4905C124.544 22.0667 123.732 21.8694 122.917 21.9257C122.101 21.9819 121.324 22.289 120.69 22.8048C120.056 23.3206 119.597 24.0198 119.377 24.8065C119.156 25.5932 119.184 26.429 119.457 27.1991C119.73 27.9692 120.235 28.636 120.902 29.108C121.569 29.58 122.366 29.8341 123.183 29.8354C123.275 29.8271 123.361 29.7847 123.423 29.7164C123.485 29.6481 123.52 29.5589 123.52 29.4664C123.52 29.3738 123.485 29.2847 123.423 29.2164C123.361 29.1481 123.275 29.1056 123.183 29.0973H123.207Z" fill="#263238"/>
<path d="M112.396 48.692C106.434 48.692 101.581 45.8172 101.581 42.282C101.581 38.7468 106.434 35.8719 112.396 35.8719C118.358 35.8719 123.211 38.7468 123.211 42.282C123.211 45.8172 118.358 48.692 112.396 48.692ZM112.396 36.1708C106.599 36.1708 101.88 38.9111 101.88 42.282C101.88 45.6529 106.599 48.3932 112.396 48.3932C118.194 48.3932 122.912 45.6529 122.912 42.282C122.912 38.9111 118.194 36.1708 112.396 36.1708Z" fill="#263238"/>
<path d="M84.8377 66.5803C78.8759 66.5803 74.0228 63.7055 74.0228 60.1702C74.0228 56.635 78.8759 53.7602 84.8377 53.7602C90.7995 53.7602 95.6526 56.635 95.6526 60.1702C95.6526 63.7055 90.7995 66.5803 84.8377 66.5803ZM84.8377 54.059C79.0403 54.059 74.3217 56.7994 74.3217 60.1702C74.3217 63.5411 79.0403 66.2815 84.8377 66.2815C90.6352 66.2815 95.3538 63.5411 95.3538 60.1702C95.3538 56.7994 90.6352 54.059 84.8377 54.059Z" fill="#263238"/>
<path d="M97.3344 98.3042C91.3726 98.3042 86.5195 95.4294 86.5195 91.8941C86.5195 88.3589 91.3726 85.4841 97.3344 85.4841C103.296 85.4841 108.149 88.3589 108.149 91.8941C108.149 95.4294 103.296 98.3042 97.3344 98.3042ZM97.3344 85.7829C91.537 85.7829 86.8184 88.5232 86.8184 91.8941C86.8184 95.265 91.537 98.0053 97.3344 98.0053C103.132 98.0053 107.85 95.265 107.85 91.8941C107.85 88.5232 103.132 85.7829 97.3344 85.7829Z" fill="#263238"/>
<path d="M119.896 82.5443C114.425 82.5443 109.975 79.2959 109.975 75.3064C109.975 71.317 114.425 68.0716 119.896 68.0716C125.368 68.0716 129.815 71.317 129.815 75.3064C129.815 79.2959 125.365 82.5443 119.896 82.5443ZM119.896 68.3704C114.592 68.3704 110.274 71.4813 110.274 75.3064C110.274 79.1315 114.592 82.2454 119.896 82.2454C125.201 82.2454 129.516 79.1315 129.516 75.3064C129.516 71.4813 125.201 68.3734 119.896 68.3734V68.3704Z" fill="#263238"/>
<path d="M83.2921 47.0424C78.959 47.0424 75.4357 44.4426 75.4357 41.251C75.4357 38.0594 78.959 35.4595 83.2921 35.4595C87.6252 35.4595 91.1455 38.0564 91.1455 41.251C91.1455 44.4456 87.6222 47.0424 83.2921 47.0424ZM83.2921 35.7584C79.1233 35.7584 75.7345 38.2208 75.7345 41.251C75.7345 44.2812 79.1233 46.7436 83.2921 46.7436C87.4609 46.7436 90.8467 44.2782 90.8467 41.251C90.8467 38.2238 87.4579 35.7584 83.2921 35.7584Z" fill="#263238"/>
<path d="M124.026 51.6984H113.842V51.9972H124.026V51.6984Z" fill="#263238"/>
<path d="M96.4679 69.5865H86.2836V69.8854H96.4679V69.5865Z" fill="#263238"/>
<path d="M108.965 101.31H98.7808V101.609H108.965V101.31Z" fill="#263238"/>
<path d="M124.026 53.0729H113.842V53.3718H124.026V53.0729Z" fill="#263238"/>
<path d="M96.4679 70.9612H86.2836V71.2601H96.4679V70.9612Z" fill="#263238"/>
<path d="M108.965 102.685H98.7808V102.984H108.965V102.685Z" fill="#263238"/>
<path d="M124.026 54.3012H113.842V54.8989H124.026V54.3012Z" fill="#CF4E16"/>
<path d="M96.4679 72.1895H86.2836V72.7871H96.4679V72.1895Z" fill="#CF4E16"/>
<path d="M108.965 103.913H98.7808V104.511H108.965V103.913Z" fill="#CF4E16"/>
<path d="M124.988 73.7166H114.804V74.0155H124.988V73.7166Z" fill="#263238"/>
<path d="M124.988 75.0912H114.804V75.3901H124.988V75.0912Z" fill="#263238"/>
<path d="M124.988 76.4689H114.804V76.7677H124.988V76.4689Z" fill="#263238"/>
<path d="M114.652 79.2271L114.577 78.6294C114.634 78.6294 120.527 77.8913 127.06 77.5805L127.086 78.1782C120.569 78.492 114.709 79.2211 114.652 79.2271Z" fill="#CF4E16"/>
<path d="M117.832 40.6891H107.647V40.988H117.832V40.6891Z" fill="#263238"/>
<path d="M90.273 58.5775H80.0886V58.8763H90.273V58.5775Z" fill="#263238"/>
<path d="M102.77 90.3013H92.5859V90.6002H102.77V90.3013Z" fill="#263238"/>
<path d="M117.927 41.3549L107.219 41.8467L107.247 42.4438L117.955 41.9519L117.927 41.3549Z" fill="#CF4E16"/>
<path d="M90.3688 59.2432L79.6608 59.735L79.6882 60.3321L90.3962 59.8402L90.3688 59.2432Z" fill="#CF4E16"/>
<path d="M102.866 90.9671L92.158 91.4589L92.1854 92.056L102.893 91.5641L102.866 90.9671Z" fill="#CF4E16"/>
<path d="M117.887 42.186L107.179 42.6891L107.193 42.9876L117.901 42.4845L117.887 42.186Z" fill="#CF4E16"/>
<path d="M90.3282 60.0743L79.6207 60.5774L79.6348 60.8759L90.3422 60.3728L90.3282 60.0743Z" fill="#CF4E16"/>
<path d="M102.826 91.7982L92.1184 92.3013L92.1324 92.5998L102.84 92.0967L102.826 91.7982Z" fill="#CF4E16"/>
<path d="M117.832 43.4415H107.647V43.7403H117.832V43.4415Z" fill="#263238"/>
<path d="M90.273 61.3297H80.0886V61.6285H90.273V61.3297Z" fill="#263238"/>
<path d="M102.77 93.0536H92.5859V93.3524H102.77V93.0536Z" fill="#263238"/>
<path d="M124.301 88.0278H114.117V88.3267H124.301V88.0278Z" fill="#263238"/>
<path d="M124.301 89.4025H114.117V89.7014H124.301V89.4025Z" fill="#263238"/>
<path d="M124.301 90.6307H114.117V91.2284H124.301V90.6307Z" fill="#CF4E16"/>
<path d="M124.301 92.7047H114.117V93.0035H124.301V92.7047Z" fill="#263238"/>
<path d="M124.301 94.0823H114.117V94.3811H124.301V94.0823Z" fill="#263238"/>
<path d="M124.301 95.3076H114.117V95.9052H124.301V95.3076Z" fill="#CF4E16"/>
<path d="M87.1443 39.8615H79.4373V40.1603H87.1443V39.8615Z" fill="#263238"/>
<path d="M87.1443 41.239H79.4373V41.5379H87.1443V41.239Z" fill="#263238"/>
<path d="M87.1443 42.6137H79.4373V42.9125H87.1443V42.6137Z" fill="#263238"/>
<path d="M117.562 59.7882L117.275 59.8727L119.752 68.2678L120.039 68.1832L117.562 59.7882Z" fill="#263238"/>
<path d="M116.74 61.9096L116.444 61.8737L116.899 58.2458L119.457 61.1057L119.233 61.303L117.114 58.9332L116.74 61.9096Z" fill="#263238"/>
<path d="M101.799 36.9776C94.6718 33.2123 88.9341 36.7983 88.8773 36.8341L88.7159 36.5831C88.7727 36.5443 94.6538 32.8656 101.939 36.7146L101.799 36.9776Z" fill="#263238"/>
<path d="M103.165 37.4079H99.3904V37.1091H102.498L100.517 34.8828L100.741 34.6826L103.165 37.4079Z" fill="#263238"/>
<path d="M64.2525 96.8062H23.778V103.32H64.2525V96.8062Z" fill="#CF4E16"/>
<path opacity="0.8" d="M64.2525 96.8062H23.778V103.32H64.2525V96.8062Z" fill="white"/>
<path opacity="0.2" d="M64.2514 98.5291V97.9992L36.541 98.2193L64.2514 98.5291Z" fill="black"/>
<path opacity="0.2" d="M64.2523 100.812V100.401L51.8115 100.847L64.2523 100.812Z" fill="black"/>
<path opacity="0.2" d="M64.2516 102.339V101.809L44.1937 102.116L64.2516 102.339Z" fill="black"/>
<path opacity="0.2" d="M32.827 96.8062L32.2455 101.662L32.9384 100.923C33.1713 101.81 33.6067 102.63 34.2102 103.32C34.6431 102.753 34.9876 102.123 35.232 101.453L54.135 101.236L35.4114 100.825C35.4695 100.558 35.4996 100.284 35.5011 100.01C35.5001 99.7831 35.4782 99.5566 35.4358 99.3335L63.1707 99.2628L35.3706 99.0454C35.2728 98.6796 35.1361 98.3252 34.963 97.9883C35.3628 97.6357 35.8783 97.4423 36.4114 97.4448H64.2523V96.8062H32.827Z" fill="black"/>
<path d="M33.4516 100.026C33.4537 100.807 33.7652 101.555 34.3179 102.107C34.8705 102.659 35.6192 102.969 36.4 102.97H64.7192C64.7477 102.97 64.776 102.975 64.8024 102.986C64.8287 102.997 64.8527 103.013 64.8729 103.033C64.8931 103.053 64.9091 103.077 64.92 103.104C64.9309 103.13 64.9366 103.158 64.9366 103.187V103.421C64.9366 103.478 64.9137 103.534 64.8729 103.574C64.8321 103.615 64.7768 103.638 64.7192 103.638H22.8859C22.4087 103.638 21.9363 103.544 21.4958 103.36C21.0554 103.177 20.6556 102.908 20.3196 102.569C19.9836 102.23 19.718 101.828 19.5381 101.386C19.3582 100.944 19.2677 100.471 19.2716 99.9938C19.2951 99.0294 19.697 98.1129 20.3906 97.4422C21.0841 96.7716 22.0136 96.4006 22.9783 96.4095H64.7192C64.7768 96.4095 64.8321 96.4324 64.8729 96.4731C64.9137 96.5139 64.9366 96.5692 64.9366 96.6269V96.8578C64.9366 96.9155 64.9137 96.9708 64.8729 97.0116C64.8321 97.0523 64.7768 97.0752 64.7192 97.0752H36.487C35.6959 97.0736 34.9356 97.3813 34.3684 97.9328C33.8012 98.4842 33.4721 99.2356 33.4516 100.026Z" fill="#CF4E16"/>
<path opacity="0.4" d="M33.4516 100.026C33.4537 100.807 33.7652 101.555 34.3179 102.107C34.8705 102.659 35.6192 102.969 36.4 102.97H64.7192C64.7477 102.97 64.776 102.975 64.8024 102.986C64.8287 102.997 64.8527 103.013 64.8729 103.033C64.8931 103.053 64.9091 103.077 64.92 103.104C64.9309 103.13 64.9366 103.158 64.9366 103.187V103.421C64.9366 103.478 64.9137 103.534 64.8729 103.574C64.8321 103.615 64.7768 103.638 64.7192 103.638H22.8859C22.4087 103.638 21.9363 103.544 21.4958 103.36C21.0554 103.177 20.6556 102.908 20.3196 102.569C19.9836 102.23 19.718 101.828 19.5381 101.386C19.3582 100.944 19.2677 100.471 19.2716 99.9938C19.2951 99.0294 19.697 98.1129 20.3906 97.4422C21.0841 96.7716 22.0136 96.4006 22.9783 96.4095H64.7192C64.7768 96.4095 64.8321 96.4324 64.8729 96.4731C64.9137 96.5139 64.9366 96.5692 64.9366 96.6269V96.8578C64.9366 96.9155 64.9137 96.9708 64.8729 97.0116C64.8321 97.0523 64.7768 97.0752 64.7192 97.0752H36.487C35.6959 97.0736 34.9356 97.3813 34.3684 97.9328C33.8012 98.4842 33.4721 99.2356 33.4516 100.026Z" fill="white"/>
<path d="M33.452 100.026C33.4542 100.807 33.7657 101.555 34.3183 102.107C34.8709 102.659 35.6197 102.969 36.4005 102.97H64.7196C64.7482 102.97 64.7764 102.975 64.8028 102.986C64.8292 102.997 64.8531 103.013 64.8733 103.033C64.8935 103.053 64.9095 103.077 64.9205 103.104C64.9314 103.13 64.937 103.158 64.937 103.187V103.421C64.937 103.478 64.9141 103.534 64.8733 103.574C64.8326 103.615 64.7773 103.638 64.7196 103.638H36.2374C35.7603 103.638 35.2879 103.543 34.8474 103.359C34.4069 103.176 34.0071 102.907 33.671 102.568C33.3348 102.23 33.069 101.828 32.8887 101.386C32.7084 100.944 32.6172 100.471 32.6204 99.9939C32.6453 99.0308 33.0469 98.1159 33.739 97.4457C34.431 96.7755 35.3583 96.4035 36.3217 96.4095H64.7196C64.7773 96.4095 64.8326 96.4324 64.8733 96.4732C64.9141 96.5139 64.937 96.5692 64.937 96.6269V96.8579C64.937 96.9155 64.9141 96.9708 64.8733 97.0116C64.8326 97.0524 64.7773 97.0753 64.7196 97.0753H36.4875C35.6964 97.0736 34.936 97.3814 34.3688 97.9328C33.8016 98.4843 33.4726 99.2357 33.452 100.026Z" fill="#CF4E16"/>
<path d="M38.7838 98.271V100.883L39.7295 99.9368L40.6453 100.853V98.271H38.7838Z" fill="#263238"/>
<path opacity="0.6" d="M33.452 100.026C33.4542 100.807 33.7657 101.555 34.3183 102.107C34.8709 102.659 35.6197 102.969 36.4005 102.97H64.7196C64.7482 102.97 64.7764 102.975 64.8028 102.986C64.8292 102.997 64.8531 103.013 64.8733 103.033C64.8935 103.053 64.9095 103.077 64.9205 103.104C64.9314 103.13 64.937 103.158 64.937 103.187V103.421C64.937 103.478 64.9141 103.534 64.8733 103.574C64.8326 103.615 64.7773 103.638 64.7196 103.638H36.2374C35.7603 103.638 35.2879 103.543 34.8474 103.359C34.4069 103.176 34.0071 102.907 33.671 102.568C33.3348 102.23 33.069 101.828 32.8887 101.386C32.7084 100.944 32.6172 100.471 32.6204 99.9939C32.6453 99.0308 33.0469 98.1159 33.739 97.4457C34.431 96.7755 35.3583 96.4035 36.3217 96.4095H64.7196C64.7773 96.4095 64.8326 96.4324 64.8733 96.4732C64.9141 96.5139 64.937 96.5692 64.937 96.6269V96.8579C64.937 96.9155 64.9141 96.9708 64.8733 97.0116C64.8326 97.0524 64.7773 97.0753 64.7196 97.0753H36.4875C35.6964 97.0736 34.936 97.3814 34.3688 97.9328C33.8016 98.4843 33.4726 99.2357 33.452 100.026Z" fill="white"/>
<path d="M66.2065 111.16H25.7319V117.674H66.2065V111.16Z" fill="#CF4E16"/>
<path opacity="0.7" d="M66.2065 111.16H25.7319V117.674H66.2065V111.16Z" fill="white"/>
<path opacity="0.2" d="M66.2053 112.88V112.35L38.4949 112.573L66.2053 112.88Z" fill="black"/>
<path opacity="0.2" d="M66.2058 115.163V114.755L53.765 115.198L66.2058 115.163Z" fill="black"/>
<path opacity="0.2" d="M66.206 116.69V116.163L46.1481 116.467L66.206 116.69Z" fill="black"/>
<path opacity="0.2" d="M34.7805 111.16L34.1935 116.016L34.8864 115.277C35.1219 116.163 35.558 116.983 36.161 117.674C36.5919 117.105 36.9354 116.475 37.18 115.804L56.083 115.587L37.3594 115.179C37.4181 114.911 37.4491 114.638 37.4518 114.364C37.4499 114.137 37.4272 113.91 37.3838 113.687L65.1268 113.625L37.324 113.407C37.2262 113.042 37.0896 112.689 36.9164 112.353C37.3143 111.996 37.8299 111.797 38.3649 111.796H66.2138V111.16H34.7805Z" fill="black"/>
<path d="M35.4056 114.378C35.4042 114.766 35.4794 115.15 35.627 115.509C35.7746 115.868 35.9916 116.194 36.2655 116.469C36.5395 116.743 36.8651 116.961 37.2235 117.11C37.5819 117.258 37.9661 117.335 38.3541 117.334H66.6733C66.7309 117.334 66.7862 117.357 66.827 117.398C66.8678 117.439 66.8907 117.494 66.8907 117.552V117.785C66.8907 117.843 66.8678 117.898 66.827 117.939C66.7862 117.98 66.7309 118.003 66.6733 118.003H22.6143C22.1376 118.002 21.6657 117.907 21.2258 117.724C20.7858 117.54 20.3865 117.271 20.0506 116.933C19.7148 116.595 19.4491 116.193 19.2688 115.752C19.0885 115.311 18.9972 114.838 19.0001 114.361C19.0229 113.396 19.4248 112.478 20.1189 111.806C20.813 111.134 21.7436 110.763 22.7095 110.772H66.6733C66.7309 110.772 66.7862 110.794 66.827 110.835C66.8678 110.876 66.8907 110.931 66.8907 110.989V111.223C66.8907 111.28 66.8678 111.336 66.827 111.376C66.7862 111.417 66.7309 111.44 66.6733 111.44H38.4411C37.6523 111.438 36.8939 111.744 36.3271 112.293C35.7603 112.841 35.4297 113.589 35.4056 114.378Z" fill="#263238"/>
<path opacity="0.2" d="M35.4056 114.378C35.4042 114.766 35.4794 115.15 35.627 115.509C35.7746 115.868 35.9916 116.194 36.2655 116.469C36.5395 116.743 36.8651 116.961 37.2235 117.11C37.5819 117.258 37.9661 117.335 38.3541 117.334H66.6733C66.7309 117.334 66.7862 117.357 66.827 117.398C66.8678 117.439 66.8907 117.494 66.8907 117.552V117.785C66.8907 117.843 66.8678 117.898 66.827 117.939C66.7862 117.98 66.7309 118.003 66.6733 118.003H22.6143C22.1376 118.002 21.6657 117.907 21.2258 117.724C20.7858 117.54 20.3865 117.271 20.0506 116.933C19.7148 116.595 19.4491 116.193 19.2688 115.752C19.0885 115.311 18.9972 114.838 19.0001 114.361C19.0229 113.396 19.4248 112.478 20.1189 111.806C20.813 111.134 21.7436 110.763 22.7095 110.772H66.6733C66.7309 110.772 66.7862 110.794 66.827 110.835C66.8678 110.876 66.8907 110.931 66.8907 110.989V111.223C66.8907 111.28 66.8678 111.336 66.827 111.376C66.7862 111.417 66.7309 111.44 66.6733 111.44H38.4411C37.6523 111.438 36.8939 111.744 36.3271 112.293C35.7603 112.841 35.4297 113.589 35.4056 114.378Z" fill="white"/>
<path d="M35.4058 114.378C35.4044 114.766 35.4796 115.15 35.6272 115.509C35.7748 115.868 35.9918 116.194 36.2657 116.469C36.5397 116.743 36.8653 116.961 37.2237 117.11C37.5821 117.258 37.9663 117.335 38.3543 117.334H66.6735C66.7311 117.334 66.7864 117.357 66.8272 117.398C66.868 117.439 66.8909 117.494 66.8909 117.552V117.785C66.8909 117.843 66.868 117.898 66.8272 117.939C66.7864 117.98 66.7311 118.003 66.6735 118.003H38.1913C37.7144 118.003 37.2421 117.908 36.8019 117.725C36.3616 117.542 35.9619 117.273 35.6259 116.935C35.29 116.596 35.0243 116.194 34.8443 115.753C34.6643 115.311 34.5734 114.838 34.577 114.361C34.5991 113.396 35.0004 112.478 35.6941 111.806C36.3878 111.134 37.3181 110.763 38.2837 110.772H66.6735C66.7311 110.772 66.7864 110.794 66.8272 110.835C66.868 110.876 66.8909 110.931 66.8909 110.989V111.223C66.8909 111.28 66.868 111.336 66.8272 111.376C66.7864 111.417 66.7311 111.44 66.6735 111.44H38.4413C37.6525 111.438 36.8941 111.744 36.3273 112.293C35.7605 112.841 35.4299 113.589 35.4058 114.378Z" fill="#263238"/>
<path d="M38.4949 113.552V116.163L39.4378 115.217L40.3536 116.133V113.552H38.4949Z" fill="#CF4E16"/>
<path opacity="0.4" d="M35.4058 114.378C35.4044 114.766 35.4796 115.15 35.6272 115.509C35.7748 115.868 35.9918 116.194 36.2657 116.469C36.5397 116.743 36.8653 116.961 37.2237 117.11C37.5821 117.258 37.9663 117.335 38.3543 117.334H66.6735C66.7311 117.334 66.7864 117.357 66.8272 117.398C66.868 117.439 66.8909 117.494 66.8909 117.552V117.785C66.8909 117.843 66.868 117.898 66.8272 117.939C66.7864 117.98 66.7311 118.003 66.6735 118.003H38.1913C37.7144 118.003 37.2421 117.908 36.8019 117.725C36.3616 117.542 35.9619 117.273 35.6259 116.935C35.29 116.596 35.0243 116.194 34.8443 115.753C34.6643 115.311 34.5734 114.838 34.577 114.361C34.5991 113.396 35.0004 112.478 35.6941 111.806C36.3878 111.134 37.3181 110.763 38.2837 110.772H66.6735C66.7311 110.772 66.7864 110.794 66.8272 110.835C66.868 110.876 66.8909 110.931 66.8909 110.989V111.223C66.8909 111.28 66.868 111.336 66.8272 111.376C66.7864 111.417 66.7311 111.44 66.6735 111.44H38.4413C37.6525 111.438 36.8941 111.744 36.3273 112.293C35.7605 112.841 35.4299 113.589 35.4058 114.378Z" fill="white"/>
<path d="M22.09 110.486H37.0852V103.98H22.09V110.486Z" fill="#CF4E16"/>
<path opacity="0.8" d="M22.09 110.486H37.0852V103.98H22.09V110.486Z" fill="white"/>
<path opacity="0.2" d="M35.8845 104.619H22.0905V103.983H35.8682L35.8845 104.619Z" fill="black"/>
<path opacity="0.2" d="M35.8845 105.173L23.441 105.44L35.8845 105.703V105.173Z" fill="black"/>
<path opacity="0.2" d="M35.8837 107.578L22.7065 107.801L35.8837 107.989V107.578Z" fill="black"/>
<path opacity="0.2" d="M35.8839 108.986L22.8236 109.25L35.8839 109.513V108.986Z" fill="black"/>
<path opacity="0.2" d="M22.0905 106.1L34.7241 106.481L22.0905 106.747V106.1Z" fill="black"/>
<path d="M55.5581 107.201C55.5567 107.982 55.2455 108.731 54.6928 109.283C54.14 109.835 53.3909 110.146 52.6096 110.146H21.3964C21.3387 110.146 21.2834 110.169 21.2426 110.21C21.2019 110.251 21.179 110.306 21.179 110.364V110.595C21.179 110.653 21.2019 110.708 21.2426 110.749C21.2834 110.789 21.3387 110.812 21.3964 110.812H52.7727C53.2498 110.813 53.7223 110.719 54.163 110.536C54.6036 110.353 55.0035 110.084 55.3396 109.746C55.6757 109.407 55.9414 109.005 56.1212 108.563C56.3009 108.121 56.3913 107.648 56.3869 107.171C56.3648 106.205 55.9635 105.287 55.2699 104.616C54.5762 103.944 53.6459 103.572 52.6803 103.581H21.3964C21.3387 103.581 21.2834 103.604 21.2426 103.645C21.2019 103.685 21.179 103.741 21.179 103.798V104.032C21.179 104.09 21.2019 104.145 21.2426 104.186C21.2834 104.227 21.3387 104.249 21.3964 104.249H52.5227C53.3137 104.248 54.0741 104.556 54.6413 105.107C55.2085 105.658 55.5375 106.41 55.5581 107.201Z" fill="#263238"/>
<path opacity="0.4" d="M55.5581 107.201C55.5567 107.982 55.2455 108.731 54.6928 109.283C54.14 109.835 53.3909 110.146 52.6096 110.146H21.3964C21.3387 110.146 21.2834 110.169 21.2426 110.21C21.2019 110.251 21.179 110.306 21.179 110.364V110.595C21.179 110.653 21.2019 110.708 21.2426 110.749C21.2834 110.789 21.3387 110.812 21.3964 110.812H52.7727C53.2498 110.813 53.7223 110.719 54.163 110.536C54.6036 110.353 55.0035 110.084 55.3396 109.746C55.6757 109.407 55.9414 109.005 56.1212 108.563C56.3009 108.121 56.3913 107.648 56.3869 107.171C56.3648 106.205 55.9635 105.287 55.2699 104.616C54.5762 103.944 53.6459 103.572 52.6803 103.581H21.3964C21.3387 103.581 21.2834 103.604 21.2426 103.645C21.2019 103.685 21.179 103.741 21.179 103.798V104.032C21.179 104.09 21.2019 104.145 21.2426 104.186C21.2834 104.227 21.3387 104.249 21.3964 104.249H52.5227C53.3137 104.248 54.0741 104.556 54.6413 105.107C55.2085 105.658 55.5375 106.41 55.5581 107.201Z" fill="white"/>
<path d="M66.9428 107.239C66.9428 108.104 66.5992 108.933 65.9876 109.545C65.3761 110.156 64.5466 110.5 63.6818 110.5H35.8844V103.978H63.6845C64.5489 103.978 65.3776 104.322 65.9886 104.934C66.5996 105.545 66.9428 106.374 66.9428 107.239Z" fill="#CF4E16"/>
<path opacity="0.7" d="M35.8844 103.983V110.505H63.6872C64.5521 110.505 65.3815 110.162 65.9931 109.55C66.6046 108.938 66.9482 108.109 66.9482 107.244C66.9482 106.379 66.6046 105.55 65.9931 104.938C65.3815 104.327 64.5521 103.983 63.6872 103.983H35.8844Z" fill="white"/>
<path opacity="0.2" d="M35.8844 105.703V105.173L63.5948 105.396L35.8844 105.703Z" fill="black"/>
<path opacity="0.2" d="M35.8844 107.989V107.578L48.3251 108.024L35.8844 107.989Z" fill="black"/>
<path opacity="0.2" d="M35.8844 109.513V108.986L55.9423 109.29L35.8844 109.513Z" fill="black"/>
<path opacity="0.2" d="M63.7307 104.619C64.2656 104.62 64.7813 104.819 65.1791 105.176C65.0058 105.513 64.8683 105.868 64.7688 106.233L36.9687 106.451L64.7063 106.519C64.6629 106.742 64.6402 106.97 64.6383 107.198C64.6388 107.472 64.6707 107.746 64.7334 108.013L46.0071 108.421L64.9074 108.641C65.0711 109.092 65.2815 109.525 65.5351 109.932C66.104 109.536 66.532 108.969 66.757 108.314C66.982 107.658 66.9922 106.948 66.7863 106.286C66.5803 105.624 66.1689 105.045 65.6116 104.633C65.0543 104.221 64.3803 103.997 63.6872 103.994H35.8844V104.63L63.7307 104.619Z" fill="black"/>
<path d="M66.684 107.201C66.6826 107.982 66.3714 108.731 65.8186 109.283C65.2659 109.835 64.5168 110.146 63.7355 110.146H35.4164C35.3587 110.146 35.3034 110.169 35.2626 110.21C35.2219 110.251 35.199 110.306 35.199 110.364V110.595C35.199 110.653 35.2219 110.708 35.2626 110.749C35.3034 110.789 35.3587 110.812 35.4164 110.812H63.8986C64.3757 110.813 64.8482 110.719 65.2888 110.536C65.7295 110.353 66.1294 110.084 66.4655 109.746C66.8016 109.407 67.0673 109.005 67.247 108.563C67.4268 108.121 67.5171 107.648 67.5128 107.171C67.4907 106.205 67.0894 105.287 66.3957 104.616C65.7021 103.944 64.7718 103.572 63.8062 103.581H35.4164C35.3587 103.581 35.3034 103.604 35.2626 103.645C35.2219 103.685 35.199 103.741 35.199 103.798V104.032C35.199 104.09 35.2219 104.145 35.2626 104.186C35.3034 104.227 35.3587 104.249 35.4164 104.249H63.6485C64.4396 104.248 65.2 104.556 65.7672 105.107C66.3344 105.658 66.6634 106.41 66.684 107.201Z" fill="#263238"/>
<path d="M63.5945 106.375V108.986L62.6488 108.04L61.733 108.956V106.375H63.5945Z" fill="#CF4E16"/>
<path d="M70.9394 69.6665H70.2601C70.1338 69.6691 70.01 69.7018 69.899 69.7618C69.7879 69.8218 69.6928 69.9075 69.6214 70.0117L68.9475 70.9954C68.8137 71.1897 68.7286 71.4133 68.6993 71.6474C68.67 71.8815 68.6973 72.1192 68.779 72.3406L68.8823 72.6123C70.01 72.6667 71.271 71.8949 71.271 71.8949L71.6568 71.7155C71.7366 71.6808 71.8086 71.6305 71.8688 71.5677C71.9289 71.5049 71.9761 71.4308 72.0074 71.3497C72.0387 71.2686 72.0537 71.182 72.0513 71.0951C72.049 71.0082 72.0295 70.9225 71.9938 70.8432L71.6487 70.0959C71.5844 69.9636 71.4832 69.8527 71.3574 69.7766C71.2316 69.7004 71.0864 69.6622 70.9394 69.6665Z" fill="#EEC1BB"/>
<path d="M58.0615 70.8649C59.8061 72.2753 61.6893 73.6341 63.7682 74.4656L63.5101 74.4113C63.7003 74.4575 64.2003 74.2672 64.4612 74.1395C65.9123 73.433 67.2874 72.3731 68.5918 71.4057C68.7253 71.3091 68.889 71.2634 69.0532 71.2769C69.2175 71.2904 69.3715 71.3623 69.4874 71.4795C69.6033 71.5967 69.6734 71.7515 69.6851 71.9159C69.6967 72.0803 69.6492 72.2434 69.5511 72.3759C68.2494 74.0064 65.3199 77.319 62.9992 76.8353C60.4556 76.0771 58.2082 74.6613 56.2054 72.9302C54.9064 71.6802 56.6484 69.7263 58.0615 70.8649Z" fill="#EBC0BB"/>
<path d="M54.4015 68.9437C53.7656 70.7155 54.7901 72.4764 57.2549 74.5499C58.4805 74.3678 60.1354 71.8541 60.1354 71.8541C60.1354 71.8541 56.6679 68.3866 54.4015 68.9437Z" fill="#CF4E16"/>
<path d="M56.5205 57.9378C56.5205 57.9378 54.0937 55.454 50.9306 58.5709C47.7674 61.6879 47.1505 72.0144 47.1505 72.0144L55.4063 73.6178C55.4063 73.6178 56.4743 72.3922 57.0232 68.8567C57.5721 65.3212 57.8629 61.9407 58.5586 61.1526C59.2543 60.3645 56.5205 57.9378 56.5205 57.9378Z" fill="#263238"/>
<path d="M63.6105 110.233L61.8224 109.521L62.5208 106.915L63.1648 104.524L65.4258 105.024L64.4665 107.782L63.6105 110.233Z" fill="#EEC1BB"/>
<path opacity="0.2" d="M64.4445 107.839L62.5015 106.964L63.1564 104.548L65.4201 105.038L64.4445 107.839Z" fill="black"/>
<path d="M50.0801 86.7515C50.0801 86.7515 65.0263 84.7351 69.1787 87.3874C73.331 90.0397 65.2899 106.193 65.2899 106.193L62.7735 105.649C62.7735 105.649 64.6595 92.8441 64.5182 92.3088C64.3769 91.7734 57.3385 95.2654 47.705 95.597L50.0801 86.7515Z" fill="#263238"/>
<path opacity="0.2" d="M50.0801 86.7515C50.0801 86.7515 65.0263 84.7351 69.1787 87.3874C73.331 90.0397 65.2899 106.193 65.2899 106.193L62.7735 105.649C62.7735 105.649 64.6595 92.8441 64.5182 92.3088C64.3769 91.7734 57.3385 95.2654 47.705 95.597L50.0801 86.7515Z" fill="black"/>
<path d="M62.6351 104.834L65.801 105.861L65.2331 107.304L62.3253 106.315L62.6351 104.834Z" fill="#263238"/>
<path d="M65.2654 110.636C64.923 110.636 64.3197 110.092 64.1947 109.962C64.1875 109.955 64.1819 109.947 64.1784 109.937V109.921C64.1778 109.904 64.1825 109.887 64.192 109.872C64.2083 109.853 64.605 109.329 64.9855 109.312C65.043 109.306 65.1011 109.313 65.1556 109.333C65.2101 109.352 65.2597 109.383 65.3007 109.424C65.3958 109.513 65.4284 109.6 65.3958 109.682C65.3442 109.812 65.1241 109.883 64.8768 109.926C65.0769 109.955 65.2651 110.039 65.4203 110.168C65.4475 110.196 65.4686 110.228 65.4822 110.264C65.4958 110.3 65.5016 110.339 65.4991 110.377C65.4991 110.535 65.4149 110.598 65.3551 110.619C65.3265 110.63 65.2961 110.636 65.2654 110.636ZM64.423 109.992C64.7382 110.263 65.1567 110.557 65.3062 110.497C65.3062 110.497 65.3605 110.478 65.3659 110.369C65.3671 110.349 65.3638 110.328 65.3563 110.309C65.3488 110.29 65.3373 110.272 65.3225 110.258C65.1757 110.095 64.7219 110.019 64.423 109.997V109.992ZM65.0154 109.448H64.9909C64.7506 109.511 64.5377 109.652 64.3849 109.848C64.8007 109.829 65.2246 109.75 65.2681 109.638C65.2817 109.603 65.2355 109.551 65.2056 109.524C65.1537 109.477 65.0855 109.452 65.0154 109.454V109.448Z" fill="#577AFA"/>
<path d="M61.4878 108.41C61.5585 108.209 63.9852 109.174 63.9852 109.174C63.9852 109.174 65.007 111.22 66.3766 112.051C67.7462 112.883 66.6266 113.503 64.9717 112.962L60.8737 111.628C59.6916 111.247 60.7568 110.486 61.4878 108.41Z" fill="#2E353A"/>
<path opacity="0.4" d="M62.6351 104.834L65.801 105.861L65.2331 107.304L62.3253 106.315L62.6351 104.834Z" fill="white"/>
<path d="M71.4095 115.405L69.5562 115.927L68.5235 113.432L67.5833 111.144L69.6812 110.166L70.597 112.94L71.4095 115.405Z" fill="#EEC1BB"/>
<path d="M68.7326 114.617C68.7326 114.405 71.3468 114.636 71.3468 114.636C71.3468 114.636 72.9094 116.307 74.4584 116.712C76.0073 117.117 75.1133 118.03 73.3714 117.989L69.0641 117.88C67.8276 117.851 68.6266 116.815 68.7326 114.617Z" fill="#2E353A"/>
<path d="M72.7193 115.334C72.3384 115.282 71.97 115.162 71.6323 114.978L71.6133 114.965C71.6123 114.957 71.6123 114.95 71.6133 114.943C71.6121 114.937 71.6121 114.93 71.6133 114.924C71.6104 114.915 71.6104 114.906 71.6133 114.897C71.6133 114.867 71.8551 114.269 72.2111 114.13C72.2647 114.108 72.3226 114.099 72.3804 114.102C72.4382 114.105 72.4946 114.121 72.5454 114.149C72.6622 114.206 72.7166 114.28 72.7111 114.369C72.6975 114.508 72.5019 114.641 72.2845 114.75C72.4863 114.72 72.6926 114.747 72.8796 114.829C72.913 114.847 72.942 114.872 72.965 114.903C72.9879 114.933 73.0042 114.968 73.0128 115.005C73.0303 115.052 73.0331 115.103 73.021 115.152C73.0089 115.2 72.9823 115.244 72.9448 115.277C72.8788 115.322 72.7989 115.343 72.7193 115.334ZM71.8578 114.943C72.241 115.114 72.722 115.274 72.8497 115.174C72.8497 115.174 72.8959 115.139 72.8715 115.035C72.867 115.015 72.8581 114.996 72.8454 114.98C72.8327 114.963 72.8166 114.95 72.7981 114.94C72.6079 114.826 72.1513 114.889 71.8578 114.943ZM72.347 114.234C72.3126 114.234 72.2785 114.24 72.2464 114.253C72.0368 114.379 71.8731 114.57 71.779 114.796C72.1731 114.66 72.5562 114.462 72.5671 114.345C72.5671 114.307 72.51 114.269 72.4747 114.253C72.4341 114.237 72.3905 114.23 72.347 114.234Z" fill="#577AFA"/>
<path opacity="0.2" d="M70.6138 112.997L68.5404 113.484L67.5892 111.168L69.6844 110.179L70.6138 112.997Z" fill="black"/>
<path d="M54.3196 88.6837C54.3196 88.6837 54.1049 85.727 54.0044 85.1237C53.9213 84.5257 53.7988 83.9338 53.6375 83.3519C52.9826 81.3817 44.1969 83.6997 44.1969 83.6997L43.9469 85.0585C43.9469 85.0585 39.9821 92.5344 42.6316 95.2274C43.4469 96.0427 45.0149 96.4122 46.6264 96.4014C46.6264 96.4014 51.5532 96.6378 60.7166 96.2111C60.7166 96.2111 60.0373 101.548 67.5892 112.005L70.1165 111.19C70.1165 111.19 65.1271 92.2055 64.7032 91.8686C61.0509 88.9174 54.3196 88.6837 54.3196 88.6837Z" fill="#263238"/>
<path d="M67.1322 111.878L70.2709 110.766L70.6976 112.258L67.7871 113.242L67.1322 111.878Z" fill="#263238"/>
<path d="M57.2733 70.3595C57.2733 70.3595 56.9581 71.1313 56.5178 72.4791C56.4118 72.7944 56.3031 73.1422 56.189 73.5172C56.0395 74.0091 55.8792 74.5499 55.7189 75.1477C55.602 75.5717 55.4852 76.0146 55.371 76.482C55.2569 76.9494 55.1346 77.4549 55.0178 77.9685C55.0178 78.0283 54.9906 78.0908 54.9797 78.1506C54.4828 80.2533 54.1198 82.3853 53.8927 84.534L44.2401 83.6916C44.2387 81.5731 44.3485 79.4559 44.5689 77.3489C44.743 75.5234 45.0804 73.7172 45.5771 71.9519C45.9603 70.6801 46.4549 69.5877 47.0908 68.873C47.0908 68.8839 52.3247 67.1664 57.2733 70.3595Z" fill="#CF4E16"/>
<path d="M52.3543 67.498C49.4493 66.5686 48.3215 68.8567 48.3215 68.8567L49.8678 68.7045L53.0065 72.6449L54.8463 70.2617L56.0039 70.884C56.0039 70.884 54.8707 68.3023 52.3543 67.498Z" fill="#CF4E16"/>
<path opacity="0.6" d="M52.3543 67.498C49.4493 66.5686 48.3215 68.8567 48.3215 68.8567L49.8678 68.7045L53.0065 72.6449L54.8463 70.2617L56.0039 70.884C56.0039 70.884 54.8707 68.3023 52.3543 67.498Z" fill="white"/>
<path d="M52.9254 72.4302L50.2622 68.4437C51.5177 67.8757 52.3492 65.4734 52.5313 64.1201L54.4118 66.9626C53.7977 67.8757 53.3873 68.9192 54.795 69.7073C54.8004 69.7073 52.9226 72.4221 52.9254 72.4302Z" fill="#EEC1BB"/>
<path opacity="0.2" d="M53.2978 65.2805L54.412 66.9626C54.2656 67.1713 54.1392 67.3933 54.0343 67.6257C53.4772 67.3757 52.8848 66.5387 53.0233 65.9598C53.0706 65.7179 53.1638 65.4873 53.2978 65.2805Z" fill="black"/>
<path d="M44.0908 83.9987L47.1099 84.197L47.0012 85.0503L43.7946 84.8193L44.0908 83.9987Z" fill="black"/>
<path d="M54.1348 85.5585L47.3655 85.0748L47.4742 84.2215L54.0261 84.6536L54.1348 85.5585Z" fill="black"/>
<path d="M51.6538 85.5558H51.6266L50.8114 85.5014C50.714 85.4951 50.6231 85.4509 50.558 85.3782C50.493 85.3055 50.4591 85.2102 50.4635 85.1128L50.4853 84.5693C50.485 84.5179 50.4958 84.467 50.5169 84.4201C50.538 84.3732 50.5689 84.3314 50.6076 84.2975C50.6435 84.2632 50.6863 84.2367 50.7331 84.2198C50.7799 84.203 50.8297 84.1961 50.8793 84.1997L51.7272 84.2486C51.7766 84.2514 51.8249 84.264 51.8694 84.2856C51.9139 84.3073 51.9537 84.3376 51.9863 84.3748C52.0189 84.412 52.0438 84.4553 52.0595 84.5022C52.0752 84.5492 52.0814 84.5988 52.0777 84.6481L52.037 85.2133C52.0281 85.3082 51.9836 85.3962 51.9126 85.4597C51.8415 85.5232 51.7491 85.5575 51.6538 85.5558ZM50.7462 84.5666L50.7217 85.1101C50.7209 85.1366 50.7304 85.1624 50.7481 85.1821C50.7658 85.2018 50.7904 85.214 50.8168 85.2161L51.6321 85.2731C51.659 85.2746 51.6855 85.2655 51.7058 85.2477C51.7261 85.23 51.7387 85.2049 51.7408 85.178L51.7815 84.6155C51.7829 84.6018 51.7814 84.588 51.7772 84.5749C51.773 84.5618 51.7661 84.5497 51.7571 84.5394C51.748 84.5295 51.7371 84.5216 51.725 84.516C51.7129 84.5104 51.6998 84.5073 51.6864 84.5068L50.8385 84.4579C50.8115 84.457 50.7851 84.4667 50.7652 84.4851C50.7549 84.4937 50.7467 84.5046 50.7411 84.5168C50.7354 84.529 50.7325 84.5423 50.7326 84.5557L50.7462 84.5666Z" fill="white"/>
<path opacity="0.5" d="M67.1322 111.878L70.2709 110.766L70.6976 112.258L67.7871 113.242L67.1322 111.878Z" fill="white"/>
<path d="M59.1298 63.3891C59.1158 63.3895 59.1019 63.3859 59.0899 63.3787C59.0778 63.3714 59.0681 63.3609 59.0619 63.3483C58.9866 63.2018 58.879 63.0742 58.7472 62.9753C58.6153 62.8765 58.4628 62.8089 58.301 62.7777C58.2908 62.7773 58.2809 62.7749 58.2717 62.7706C58.2626 62.7662 58.2544 62.76 58.2478 62.7524C58.2411 62.7447 58.2362 62.7358 58.2332 62.7261C58.2302 62.7164 58.2292 62.7062 58.2303 62.6961C58.233 62.6767 58.2429 62.6589 58.2579 62.6464C58.273 62.6338 58.2922 62.6273 58.3118 62.6282C58.4998 62.6603 58.6776 62.7361 58.8309 62.8493C58.9843 62.9626 59.109 63.1102 59.195 63.2804C59.1997 63.2891 59.2025 63.2986 59.2034 63.3085C59.2043 63.3183 59.2032 63.3282 59.2001 63.3376C59.1971 63.347 59.1922 63.3557 59.1857 63.3631C59.1792 63.3706 59.1713 63.3766 59.1624 63.3809L59.1298 63.3891Z" fill="#263238"/>
<path d="M58.2214 64.5658C58.251 64.943 58.3258 65.3152 58.4443 65.6745C58.3482 65.7334 58.2377 65.7645 58.125 65.7645C58.0123 65.7645 57.9018 65.7334 57.8057 65.6745L58.2214 64.5658Z" fill="#D4827D"/>
<path d="M58.8221 64.1609C58.7515 64.3294 58.6047 64.4326 58.4906 64.3837C58.3764 64.3348 58.3411 64.1609 58.4118 63.9924C58.4824 63.8239 58.6292 63.7207 58.7433 63.7696C58.8574 63.8185 58.89 63.9897 58.8221 64.1609Z" fill="#263238"/>
<path d="M58.6919 63.7587H59.1185C59.1185 63.7587 58.8087 64.0005 58.6919 63.7587Z" fill="#263238"/>
<path d="M52.5667 65.6228C52.577 65.6507 52.5907 65.6772 52.6075 65.7016C52.6346 65.756 52.6645 65.8049 52.6944 65.8593C52.8689 66.1938 53.106 66.4918 53.3928 66.737C54.3195 67.5061 55.1184 67.7506 55.8386 67.5523C55.8739 67.5523 55.9065 67.5305 55.9418 67.5197C57.0071 67.1175 57.8441 65.8892 58.5534 64.2315C58.8605 63.5897 59.0615 62.9023 59.1485 62.1961C59.1485 62.1961 59.1485 62.1716 59.1485 62.1662C59.1485 62.1607 59.1485 62.1091 59.1485 62.0847C59.1833 61.6785 59.1159 61.2701 58.9527 60.8966C58.7894 60.5231 58.5354 60.1963 58.2137 59.946C57.939 59.7198 57.64 59.5248 57.3223 59.3644C54.2353 57.7611 51.0748 62.639 52.5667 65.6228Z" fill="#EEC1BB"/>
<path d="M59.1482 62.1689C59.1482 62.1689 58.2188 64.4408 55.6752 64.3429C55.6752 64.3429 53.6425 66.1664 52.3191 65.5386C50.512 64.6826 50.2185 61.351 52.1398 59.0764C54.6372 56.1252 59.8548 58.4133 59.1482 62.1689Z" fill="#263238"/>
<path d="M57.0477 64.2451C57.2189 63.9027 57.2325 63.1934 56.6645 63.0032C56.0966 62.813 55.0884 64.006 56.2841 64.987C56.4553 65.1283 56.7026 64.9571 57.0477 64.2451Z" fill="#EEC1BB"/>
<path d="M56.5204 57.9377C56.5204 57.9377 58.8711 58.4595 59.5994 59.878C60.4526 61.5357 60.4526 62.8048 58.0667 63.5738C58.0667 63.5738 55.1399 60.677 53.8545 60.3318C53.1051 60.1259 52.3397 59.9832 51.5664 59.9052C52.4876 57.4703 55.5937 56.8779 56.5204 57.9377Z" fill="#263238"/>
<path d="M55.6808 64.3429C54.2025 67.2968 50.9524 72.3161 47.4875 68.7752C47.4875 68.7752 48.7322 64.7696 51.2459 63.1173C53.7596 61.4651 55.6808 64.3429 55.6808 64.3429Z" fill="#263238"/>
<path d="M55.1454 69.2697C56.409 70.2046 54.7921 73.2808 56.3873 73.9656C56.2374 73.7583 56.1432 73.5161 56.1137 73.262C56.0842 73.0079 56.1204 72.7505 56.2188 72.5144C56.5531 71.6774 57.9091 69.4654 57.3683 66.4707L55.1454 69.2697Z" fill="#263238"/>
<path opacity="0.2" d="M48.5993 75.7564C48.5993 75.7564 46.534 77.1559 44.5801 77.3299C44.7517 75.5111 45.0854 73.7113 45.5774 71.9519C45.8274 71.8111 46.1062 71.7293 46.3927 71.7128C47.8438 71.7399 48.3737 73.1014 48.3737 73.1014C48.5308 73.9775 48.6063 74.8663 48.5993 75.7564Z" fill="black"/>
<path d="M56.1373 85.4498L55.7025 84.928C55.6208 84.8328 55.5175 84.7584 55.4012 84.7111C55.2849 84.6639 55.159 84.6451 55.034 84.6563L53.8437 84.7433C53.6085 84.7604 53.3808 84.8337 53.1798 84.9571C52.9789 85.0806 52.8105 85.2505 52.6888 85.4525L52.5366 85.7052C53.1997 86.621 54.5883 87.1238 54.5883 87.1238L54.9688 87.3113C55.0452 87.3526 55.1291 87.3783 55.2156 87.387C55.302 87.3956 55.3893 87.3871 55.4725 87.3618C55.5556 87.3366 55.6329 87.2951 55.6999 87.2398C55.7669 87.1844 55.8223 87.1164 55.8628 87.0395L56.2433 86.2895C56.3115 86.155 56.3378 86.0031 56.3189 85.8534C56.3001 85.7038 56.2368 85.5632 56.1373 85.4498Z" fill="#EEC1BB"/>
<path d="M47.7701 72.9574C47.737 74.6689 47.8598 76.3798 48.137 78.069C48.2388 78.6094 48.3704 79.1437 48.531 79.6696L48.4114 79.4332C49.0392 80.3925 49.9577 81.2811 50.7594 82.1507L52.1018 83.5367L53.4606 84.9307C53.5802 85.0513 53.6511 85.2119 53.6594 85.3815C53.6676 85.5512 53.6128 85.7179 53.5055 85.8496C53.3981 85.9812 53.2459 86.0685 53.078 86.0945C52.9101 86.1206 52.7386 86.0835 52.5964 85.9906C52.0339 85.6346 51.5094 85.2596 50.9659 84.8791C49.3082 83.6318 47.637 82.466 46.3461 80.8028C45.2211 78.3109 44.9466 75.5417 45.0417 72.8351C45.2021 71.028 47.8217 71.1611 47.8 72.9737L47.7701 72.9574Z" fill="#EBC0BB"/>
<path d="M46.9987 68.9002C45.2187 69.5116 44.4823 71.4139 44.4034 74.6314C45.3138 75.4766 48.3085 75.1967 48.3085 75.1967C48.3085 75.1967 48.8493 70.3215 46.9987 68.9002Z" fill="#CF4E16"/>
<path d="M66.179 87.9499V88.8005C66.179 89.0206 65.9072 89.1103 65.7007 89.1103H48.5505C48.3304 89.1103 48.0641 89.0206 48.0641 88.8005V87.9418L66.179 87.9499Z" fill="#263238"/>
<path opacity="0.4" d="M66.179 87.9499V88.8005C66.179 89.0206 65.9072 89.1103 65.7007 89.1103H48.5505C48.3304 89.1103 48.0641 89.0206 48.0641 88.8005V87.9418L66.179 87.9499Z" fill="white"/>
<path opacity="0.2" d="M66.1788 87.9499V88.8005C66.1788 89.0206 65.9071 89.1103 65.7006 89.1103H54.3903C54.1702 89.1103 53.9093 89.0206 53.9093 88.8005V87.9418L66.1788 87.9499Z" fill="black"/>
<path d="M69.0487 79.0419L67.0051 88.3005C66.9689 88.4495 66.884 88.5823 66.764 88.6777C66.6439 88.7732 66.4954 88.826 66.342 88.8277H55.2003C55.131 88.8256 55.0632 88.8076 55.002 88.7751C54.9408 88.7426 54.8879 88.6965 54.8474 88.6402C54.8069 88.584 54.78 88.5192 54.7686 88.4508C54.7572 88.3825 54.7617 88.3124 54.7818 88.2461L56.8226 79.0555C56.8639 78.9156 56.9521 78.7941 57.0723 78.7115C57.1926 78.6289 57.3376 78.5901 57.483 78.6017H68.6383C68.9318 78.6017 69.1139 78.7457 69.0487 79.0419Z" fill="#263238"/>
<path opacity="0.4" d="M69.0481 79.0419L67.0046 88.3005C66.9683 88.4496 66.8835 88.5823 66.7634 88.6778C66.6433 88.7732 66.4949 88.826 66.3415 88.8277H55.5693C55.4998 88.8261 55.4316 88.8084 55.3701 88.7761C55.3086 88.7437 55.2553 88.6976 55.2145 88.6413C55.1738 88.585 55.1466 88.5201 55.135 88.4515C55.1235 88.383 55.128 88.3127 55.1481 88.2461L57.1889 79.0555C57.2303 78.9151 57.3189 78.7933 57.4397 78.7106C57.5605 78.6279 57.7061 78.5895 57.852 78.6017H68.6269C68.9313 78.6017 69.1133 78.7457 69.0481 79.0419Z" fill="white"/>
<path opacity="0.2" d="M63.5484 83.7486C63.5484 84.5394 62.6978 85.1835 62.0755 85.1835C61.4532 85.1835 61.0836 84.5394 61.2602 83.7486C61.4369 82.9578 62.0592 82.3355 62.6679 82.3138C62.4913 83.1046 62.8717 83.7486 63.4832 83.7486H63.5484Z" fill="black"/>
</svg>
