<svg width="2756" height="736" viewBox="0 0 2756 736" fill="none" xmlns="http://www.w3.org/2000/svg">
<path d="M2755.5 399C2755.5 1293.43 2030.43 2018.5 1136 2018.5C241.575 2018.5 -483.5 1293.43 -483.5 399C-483.5 -495.425 241.575 -1220.5 1136 -1220.5C2030.43 -1220.5 2755.5 -495.425 2755.5 399ZM1434.81 399C1434.81 564.029 1301.03 697.812 1136 697.812C970.971 697.812 837.188 564.029 837.188 399C837.188 233.971 970.971 100.188 1136 100.188C1301.03 100.188 1434.81 233.971 1434.81 399ZM1136 698.812C1301.58 698.812 1435.81 564.582 1435.81 399C1435.81 233.418 1301.58 99.1879 1136 99.1879C970.418 99.1879 836.188 233.418 836.188 399C836.188 564.582 970.418 698.812 1136 698.812ZM1915.46 399C1915.46 829.484 1566.48 1178.46 1136 1178.46C705.516 1178.46 356.54 829.484 356.54 399C356.54 -31.4835 705.516 -380.46 1136 -380.46C1566.48 -380.46 1915.46 -31.4835 1915.46 399ZM1136 1179.46C1567.04 1179.46 1916.46 830.036 1916.46 399C1916.46 -32.0359 1567.04 -381.46 1136 -381.46C704.964 -381.46 355.54 -32.0359 355.54 399C355.54 830.036 704.964 1179.46 1136 1179.46ZM1680.6 399C1680.6 699.773 1436.77 943.598 1136 943.598C835.227 943.598 591.402 699.773 591.402 399C591.402 98.2269 835.227 -145.598 1136 -145.598C1436.77 -145.598 1680.6 98.2269 1680.6 399ZM1136 944.598C1437.33 944.598 1681.6 700.325 1681.6 399C1681.6 97.6747 1437.33 -146.598 1136 -146.598C834.675 -146.598 590.402 97.6747 590.402 399C590.402 700.325 834.675 944.598 1136 944.598ZM2169.98 399C2169.98 970.054 1707.05 1432.98 1136 1432.98C564.946 1432.98 102.016 970.054 102.016 399C102.016 -172.054 564.946 -634.984 1136 -634.984C1707.05 -634.984 2169.98 -172.054 2169.98 399ZM1136 1433.98C1707.61 1433.98 2170.98 970.606 2170.98 399C2170.98 -172.606 1707.61 -635.984 1136 -635.984C564.394 -635.984 101.016 -172.606 101.016 399C101.016 970.606 564.394 1433.98 1136 1433.98ZM2445.49 399C2445.49 1138.38 1846.1 1737.76 1106.73 1737.76C367.352 1737.76 -232.031 1138.38 -232.031 399C-232.031 -340.376 367.352 -939.758 1106.73 -939.758C1846.1 -939.758 2445.49 -340.376 2445.49 399ZM1106.73 1738.76C1846.66 1738.76 2446.49 1138.93 2446.49 399C2446.49 -340.928 1846.66 -940.758 1106.73 -940.758C366.799 -940.758 -233.031 -340.928 -233.031 399C-233.031 1138.93 366.799 1738.76 1106.73 1738.76Z" stroke="#2B2B2B"/>
</svg>
